<svg width="93" height="36" viewBox="0 0 93 36" fill="none" xmlns="http://www.w3.org/2000/svg">
<path d="M52.9219 0.689559C51.0731 1.66942 50.4075 3.28712 50.4075 7.76122C50.4075 7.76122 51.3411 6.86455 52.7139 6.36075C53.7215 6.0141 54.5719 5.45946 55.0803 5.0897C56.6426 3.94807 56.8598 2.49214 56.8598 0.0239961C56.8598 0.0239961 54.3038 -0.04996 52.9219 0.689559ZM42.0648 1.748C40.5858 3.06989 40.1328 5.16365 40.1328 5.16365L35.1503 24.3033L31.0413 8.61166C30.6392 6.97086 29.9043 4.87709 28.7534 3.49511C27.3206 1.748 24.3903 1.64169 24.0621 1.64169C23.7478 1.64169 20.7851 1.748 19.3199 3.52285C18.1829 4.92331 17.4434 6.99397 17.0413 8.64402L12.9323 24.3357L8.0053 5.16828C8.0053 5.16828 7.58007 3.04678 6.0733 1.75262C3.62827 -0.396607 0 0.0563499 0 0.0563499L9.46585 35.9415C9.46585 35.9415 12.5949 36.1819 14.1572 35.3592C16.1955 34.3238 17.2031 33.5057 18.451 28.5972C19.5649 24.2525 22.6663 11.4773 22.9528 10.5483C23.0869 10.0953 23.2764 9.01378 24.0667 9.01378C24.8941 9.01378 25.0558 10.0722 25.1806 10.5483C25.4764 11.4496 28.5501 24.2525 29.6917 28.5972C30.9304 33.4734 31.9149 34.2684 33.9855 35.3592C35.5478 36.1819 38.6769 35.9415 38.6769 35.9415L48.1427 0.079456C48.1335 0.079456 44.496 -0.378121 42.0648 1.748ZM56.8598 5.9078C56.8598 5.9078 56.2636 6.80908 54.9186 7.60407C54.0496 8.08475 53.2223 8.42678 52.321 8.85663C50.8281 9.56842 50.4075 10.3911 50.4075 11.6067V35.9461C50.4075 35.9461 52.8202 36.2373 54.3547 35.4655C56.3699 34.4394 56.8182 33.4549 56.8552 28.9762L56.8598 5.9078ZM80.4874 18.0729L92.5 0.162655C92.5 0.162655 87.4343 -0.710903 84.9153 1.59085C83.2976 3.04678 81.5043 5.68132 81.5043 5.68132L77.1041 12.0874C76.8592 12.4063 76.6235 12.7807 76.1797 12.7807C75.7222 12.7807 75.4356 12.4341 75.2461 12.0874L70.7997 5.69981C70.7997 5.69981 69.0203 3.07451 67.3795 1.61396C64.8836 -0.692414 59.7948 0.181141 59.7948 0.181141L71.8258 18.0452L59.7948 35.8768C59.7948 35.8768 65.0916 36.5655 67.5967 34.2591C69.2144 32.8032 70.7766 30.3905 70.7766 30.3905L75.1675 23.9983C75.4125 23.684 75.6482 23.3189 76.0919 23.3189C76.5541 23.3189 76.8361 23.6655 77.0256 23.9983L81.4257 30.3905C81.4257 30.3905 83.0665 32.7477 84.6611 34.2591C87.1478 36.5655 92.366 35.8768 92.366 35.8768L80.4874 18.0729Z" fill="#868686"/>
</svg>
