<svg width="45" height="45" viewBox="0 0 45 45" fill="none" xmlns="http://www.w3.org/2000/svg">
<path d="M22.5426 16.8766C22.9807 16.8757 23.4052 17.0283 23.7426 17.3078L34.9926 26.6828C35.3755 27.0011 35.6163 27.4584 35.662 27.9542C35.7077 28.45 35.5546 28.9437 35.2363 29.3266C34.9181 29.7095 34.4607 29.9503 33.9649 29.996C33.4691 30.0417 32.9755 29.8886 32.5926 29.5703L22.5426 21.1703L12.4926 29.2703C12.3008 29.4261 12.0801 29.5424 11.8432 29.6126C11.6063 29.6827 11.3579 29.7054 11.1122 29.6793C10.8666 29.6531 10.6285 29.5787 10.4116 29.4603C10.1948 29.3418 10.0036 29.1817 9.84882 28.9891C9.67711 28.7963 9.54706 28.5701 9.46683 28.3247C9.38659 28.0793 9.3579 27.82 9.38254 27.563C9.40718 27.306 9.48463 27.0569 9.61004 26.8312C9.73544 26.6055 9.90611 26.4082 10.1113 26.2516L21.3613 17.1953C21.7084 16.96 22.1243 16.8477 22.5426 16.8766Z" fill="#212427"/>
</svg>
