<svg width="2599" height="3035" viewBox="0 0 2599 3035" fill="none" xmlns="http://www.w3.org/2000/svg">
<g style="mix-blend-mode:luminosity" opacity="0.04">
<path d="M1989.11 3032.35C1989.11 3032.35 2243.92 2720.46 2090 2554.3C1936.09 2388.14 1739.39 2650.38 1584.48 2492.59C1429.58 2334.81 1608.51 2313.45 1538.28 2152.78C1468.05 1992.11 1260.33 2020.74 1147.64 1938.79C1034.94 1856.84 1197.24 1767.87 1066.15 1671.88C935.066 1575.89 821.774 1606.87 700.81 1483.66C579.847 1360.45 614.139 1319.38 586.491 1272.45C558.843 1225.52 452.094 1230.33 452.094 1230.33" stroke="#7209B7" stroke-width="6"/>
<path d="M2023.02 2194.15C2025.19 2131.93 2048.94 2056.35 1975.97 2004.54C1903 1952.73 1800.59 2005.12 1712.34 1915.23C1624.08 1825.34 1759.92 1698.15 1651.32 1583.78C1542.73 1469.42 1332.46 1600.55 1268.1 1537.81C1203.74 1475.07 1238.46 1347.16 1189.83 1278.86C1141.2 1210.56 1095.17 1286.6 976.68 1165.91C858.185 1045.21 1019.95 803.687 857.015 661.187C694.083 518.687 436.295 577.952 436.295 577.952" stroke="#4CC9F0" stroke-width="2"/>
<path d="M1999.62 2960.13C1999.78 2955.34 2236.82 2661.63 2089.13 2504.26C1941.43 2346.9 1751.99 2592.99 1602.21 2440.43C1452.43 2287.87 1628.05 2258.37 1554.87 2101.26C1481.69 1944.15 1273.77 1980.66 1164.8 1900.19C1055.82 1819.72 1208.3 1727.76 1083.56 1633.9C958.817 1540.04 850.7 1574.49 729.926 1451.47C609.152 1328.45 653.25 1271.96 615.196 1217.68C577.141 1163.4 458.774 1172.4 458.774 1172.4" stroke="#7209B7" stroke-width="5.69231"/>
<path d="M2010.11 2887.91C2010.44 2878.34 2229.71 2602.8 2088.24 2454.23C1946.77 2305.66 1764.58 2535.62 1619.93 2388.28C1475.28 2240.94 1647.58 2203.3 1571.45 2049.75C1495.32 1896.2 1287.21 1940.6 1181.95 1861.61C1076.69 1782.62 1219.36 1687.65 1100.96 1595.93C982.557 1504.2 879.615 1542.11 759.031 1419.29C638.447 1296.46 692.35 1224.55 643.889 1162.92C595.428 1101.29 465.443 1114.47 465.443 1114.47" stroke="#7209B7" stroke-width="5.38462"/>
<path d="M2020.59 2815.69C2021.09 2801.34 2222.58 2543.98 2087.34 2404.2C1952.1 2264.43 1777.17 2478.25 1637.64 2336.13C1498.12 2194.01 1667.1 2148.23 1588.02 1998.25C1508.94 1848.26 1300.63 1900.54 1199.09 1823.03C1097.55 1745.51 1230.41 1647.56 1118.35 1557.96C1006.29 1468.36 908.521 1509.74 788.127 1387.11C667.733 1264.48 731.441 1177.15 672.574 1108.16C613.706 1039.18 472.103 1056.55 472.103 1056.55" stroke="#480CA8" stroke-width="5.07692"/>
<path d="M2031.07 2743.5C2031.74 2724.36 2215.45 2485.18 2086.44 2354.2C1957.42 2223.22 1789.74 2420.9 1655.34 2284C1520.94 2147.1 1686.62 2093.19 1604.58 1946.76C1522.55 1800.33 1314.04 1860.5 1216.22 1784.47C1118.4 1708.43 1241.44 1607.48 1135.73 1520.01C1030.01 1432.54 937.418 1477.39 817.214 1354.95C697.01 1232.51 770.524 1129.76 701.25 1053.43C631.976 977.09 478.754 998.652 478.754 998.652" stroke="#173ED4" stroke-width="4.76923"/>
<path d="M2041.53 2671.31C2042.36 2647.38 2208.31 2426.38 2085.52 2304.2C1962.73 2182.02 1802.3 2363.55 1673.03 2231.87C1543.76 2100.2 1706.12 2038.14 1621.13 1895.28C1536.15 1752.42 1327.45 1820.47 1233.34 1745.91C1139.24 1671.35 1252.47 1567.4 1153.09 1482.06C1053.72 1396.72 966.302 1445.04 846.288 1322.79C726.274 1200.55 809.593 1082.38 729.913 998.692C650.233 915.006 485.392 940.757 485.392 940.757" stroke="#1D4DD7" stroke-width="4.46154"/>
<path d="M2051.98 2599.14C2052.98 2570.42 2201.15 2367.6 2084.59 2254.21C1968.03 2140.83 1814.85 2306.22 1690.71 2179.77C1566.56 2053.32 1725.61 1983.12 1637.67 1843.81C1549.73 1704.51 1340.84 1780.45 1250.45 1707.37C1160.07 1634.29 1263.48 1527.34 1170.45 1444.14C1077.42 1360.93 995.176 1412.7 875.352 1290.65C755.527 1168.6 848.652 1035.01 758.565 943.976C668.479 852.938 492.019 882.879 492.019 882.879" stroke="#235DDA" stroke-width="4.15385"/>
<path d="M2062.41 2526.98C2063.58 2493.48 2193.97 2308.83 2083.64 2204.24C1973.3 2099.66 1827.38 2248.9 1708.36 2127.67C1589.35 2006.45 1745.07 1928.11 1654.19 1792.37C1563.3 1656.63 1354.2 1740.45 1267.54 1668.84C1180.87 1597.24 1274.47 1487.3 1187.78 1406.22C1101.09 1325.14 1024.03 1380.39 904.392 1258.53C784.757 1136.68 887.687 987.667 787.194 889.277C686.701 790.887 498.623 825.017 498.623 825.017" stroke="#296CDE" stroke-width="3.84615"/>
<path d="M2058.23 2469.16C2059.57 2430.88 2172.19 2264.41 2068.08 2168.62C1963.97 2072.83 1825.3 2205.93 1711.41 2089.92C1597.52 1973.92 1749.94 1887.44 1656.1 1755.26C1562.26 1623.08 1352.97 1714.79 1270.02 1644.66C1187.07 1574.54 1270.86 1461.6 1190.51 1382.65C1110.17 1303.7 1038.27 1362.42 918.827 1240.75C799.383 1119.09 912.118 954.66 801.218 848.919C690.319 743.177 490.623 781.496 490.623 781.496" stroke="#2F7CE1" stroke-width="3.53846"/>
<path d="M2051.21 2414.14C2052.72 2371.07 2147.56 2222.78 2049.68 2135.78C1951.8 2048.79 1820.38 2165.75 1711.62 2054.97C1602.86 1944.18 1751.96 1849.56 1655.16 1720.95C1558.37 1592.33 1348.89 1691.92 1269.66 1623.27C1190.43 1554.62 1264.4 1438.7 1190.4 1361.88C1116.4 1285.06 1049.68 1347.23 930.422 1225.76C811.167 1104.29 933.708 924.447 812.402 811.354C691.096 698.26 479.781 740.769 479.781 740.769" stroke="#358BE4" stroke-width="3.23077"/>
<path d="M2044.17 2359.13C2045.85 2311.27 2122.92 2181.16 2031.27 2102.96C1939.61 2024.76 1815.45 2125.58 1711.81 2020.02C1608.18 1914.46 1753.96 1811.69 1654.22 1686.64C1554.48 1561.59 1344.8 1669.06 1269.28 1601.89C1193.77 1534.72 1257.93 1415.8 1190.27 1341.11C1122.61 1266.42 1061.06 1332.06 941.999 1210.79C822.935 1089.51 955.28 894.243 823.568 773.798C691.856 653.353 468.923 700.05 468.923 700.05" stroke="#3A9BE7" stroke-width="2.92308"/>
<path d="M2037.13 2304.13C2038.97 2251.48 2098.27 2139.55 2012.84 2070.14C1927.42 2000.74 1810.5 2085.42 1711.99 1985.08C1613.49 1884.74 1755.95 1773.84 1653.26 1652.35C1550.57 1530.86 1340.69 1646.21 1268.9 1580.52C1197.1 1514.83 1251.45 1392.91 1190.13 1320.35C1128.81 1247.79 1072.44 1316.9 953.567 1195.82C834.692 1074.73 976.843 864.048 834.724 736.252C692.605 608.455 458.054 659.342 458.054 659.342" stroke="#40AAEA" stroke-width="2.61538"/>
<path d="M2030.08 2249.13C2032.09 2191.7 2073.61 2097.94 1994.41 2037.34C1915.21 1976.73 1805.55 2045.27 1712.17 1950.15C1618.79 1855.03 1757.94 1735.99 1652.3 1618.06C1546.65 1500.13 1336.58 1623.38 1268.5 1559.16C1200.43 1494.94 1244.96 1370.03 1189.98 1299.6C1135.01 1229.17 1083.81 1301.75 965.13 1180.86C846.445 1059.97 998.401 833.863 845.876 698.715C693.351 563.567 447.181 618.643 447.181 618.643" stroke="#46BAED" stroke-width="2.30769"/>
</g>
<g filter="url(#filter0_f_1320_2711)">
<path d="M442.952 981.472C372.616 949.388 377.271 666.659 366.822 647.041L326.728 649.841C321.459 617.735 318.596 522.032 349.294 396.074C387.667 238.627 423.051 347.144 524.099 420.862C625.147 494.58 650.12 405.278 777.682 322.377C905.244 239.476 1190.47 390.972 1169.75 711.819C1149.03 1032.67 1117.54 849.885 1039.71 889.233C961.883 928.582 947.914 817.953 783 715.399C618.085 612.845 714.605 881.725 692.203 1007.84C669.801 1133.96 513.287 1013.56 442.952 981.472Z" fill="#0000C8"/>
</g>
<g filter="url(#filter1_f_1320_2711)">
<path d="M945.208 564.861C895.99 358.537 861.603 482.443 772.618 424.668C792.603 384.152 806.202 296.681 700.719 270.932C568.865 238.746 621.354 376.467 564.815 514.436C508.276 652.406 365.445 819.56 386.368 895.557C407.29 971.553 471.799 931.414 652.977 975.86C834.155 1020.31 820.486 914.617 871.713 883.316C922.941 852.014 994.425 771.186 945.208 564.861Z" fill="#7209B7" fill-opacity="0.63"/>
</g>
<g filter="url(#filter2_f_1320_2711)">
<path d="M357.635 664.261C246.92 758.009 340.621 858.073 401.311 896.386C410.566 898.773 441.562 883.102 491.508 801.319C553.94 699.092 594.766 763.346 701.705 782.722C808.645 802.097 970.144 802.406 885.138 626.212C800.133 450.018 765.077 603.676 672.616 530.856C580.155 458.036 496.03 547.076 357.635 664.261Z" fill="white"/>
</g>
<defs>
<filter id="filter0_f_1320_2711" x="23.4131" y="0.0136719" width="1447.41" height="1364.18" filterUnits="userSpaceOnUse" color-interpolation-filters="sRGB">
<feFlood flood-opacity="0" result="BackgroundImageFix"/>
<feBlend mode="normal" in="SourceGraphic" in2="BackgroundImageFix" result="shape"/>
<feGaussianBlur stdDeviation="150" result="effect1_foregroundBlur_1320_2711"/>
</filter>
<filter id="filter1_f_1320_2711" x="184.292" y="66.2031" width="977.446" height="1120.41" filterUnits="userSpaceOnUse" color-interpolation-filters="sRGB">
<feFlood flood-opacity="0" result="BackgroundImageFix"/>
<feBlend mode="normal" in="SourceGraphic" in2="BackgroundImageFix" result="shape"/>
<feGaussianBlur stdDeviation="100" result="effect1_foregroundBlur_1320_2711"/>
</filter>
<filter id="filter2_f_1320_2711" x="6.26074" y="204.5" width="1202.72" height="992.111" filterUnits="userSpaceOnUse" color-interpolation-filters="sRGB">
<feFlood flood-opacity="0" result="BackgroundImageFix"/>
<feBlend mode="normal" in="SourceGraphic" in2="BackgroundImageFix" result="shape"/>
<feGaussianBlur stdDeviation="150" result="effect1_foregroundBlur_1320_2711"/>
</filter>
</defs>
</svg>
