<svg width="28" height="37" viewBox="0 0 28 37" fill="none" xmlns="http://www.w3.org/2000/svg">
<path d="M24.3478 13.8151H23.5717V9.57139C23.5717 4.29354 19.2781 0 14.0001 0C8.72261 0 4.42888 4.29354 4.42888 9.57139V13.8151H3.6522C1.63524 13.8151 0 15.4502 0 17.4673V28.8066C0 32.9086 3.32519 36.234 7.42724 36.234H20.5728C24.6748 36.234 28 32.9086 28 28.8066V17.4673C28 15.4502 26.3649 13.8151 24.3478 13.8151ZM15.3599 25.1002V29.7131C15.3599 30.4641 14.751 31.073 14.0001 31.073C13.2491 31.073 12.6402 30.4641 12.6402 29.7131V25.1002C11.6043 24.5951 10.8889 23.5351 10.8889 22.3051C10.8889 20.5869 12.2819 19.1937 14.0001 19.1937C15.7185 19.1937 17.1115 20.5867 17.1115 22.3051C17.1115 23.5351 16.3957 24.5953 15.3599 25.1002ZM20.1102 13.8151H7.89068V9.57139C7.89068 6.20235 10.6314 3.46144 14.0003 3.46144C17.3695 3.46144 20.1102 6.20235 20.1102 9.57139V13.8151Z" fill="#0000C8"/>
</svg>
