<svg width="46" height="46" viewBox="0 0 46 46" fill="none" xmlns="http://www.w3.org/2000/svg">
<path d="M29.4045 45.9762C28.8271 45.9762 28.2925 45.6554 28.0145 45.1636C27.7365 44.6503 27.7365 44.0515 28.0359 43.5383L30.2813 39.7959C30.7304 39.026 31.7355 38.7908 32.484 39.2398C33.2539 39.6889 33.4891 40.6727 33.04 41.4425L32.4626 42.4049C38.365 41.0148 42.7917 35.7113 42.7917 29.3812C42.7917 28.5044 43.5188 27.7773 44.3956 27.7773C45.2724 27.7773 45.9995 28.5044 45.9995 29.3812C45.9781 38.5341 38.5361 45.9762 29.4045 45.9762Z" fill="#0000C8"/>
<path d="M1.6039 18.1775C0.727099 18.1775 0 17.4504 0 16.5736C0 7.44207 7.44207 0 16.5736 0C17.151 0 17.6856 0.320779 17.9636 0.81264C18.2416 1.32589 18.2416 1.92467 17.9422 2.43792L15.6968 6.18034C15.2477 6.92883 14.264 7.18545 13.4941 6.71497C12.7456 6.26588 12.489 5.28216 12.9595 4.51229L13.5369 3.54995C7.61316 4.94 3.20779 10.2435 3.20779 16.5736C3.20779 17.4504 2.48069 18.1775 1.6039 18.1775Z" fill="#0000C8"/>
<path d="M28.9771 24.3351V30.6224C28.9771 35.8618 26.8813 37.9575 21.6419 37.9575H15.3547C10.1153 37.9575 8.01953 35.8618 8.01953 30.6224V24.3351C8.01953 19.0957 10.1153 17 15.3547 17H21.6419C26.8813 17 28.9771 19.0957 28.9771 24.3351Z" fill="#0000C8"/>
<path d="M30.6254 8.01953H24.3381C19.1842 8.01953 17.0886 10.0725 17.0244 15.1194H21.6435C27.9308 15.1194 30.8392 18.0492 30.8392 24.3151V28.9343C35.9075 28.8702 37.9391 26.7744 37.9391 21.6206V15.3547C37.9605 10.1153 35.8647 8.01953 30.6254 8.01953Z" fill="#0000C8"/>
</svg>
