<svg width="22" height="42" viewBox="0 0 22 42" fill="none" xmlns="http://www.w3.org/2000/svg">
<path d="M21.9974 26.9698C21.9861 28.3409 21.6169 29.6853 20.9263 30.8698C20.2357 32.0543 19.2476 33.038 18.06 33.7233C16.7363 34.5611 15.2705 35.1498 13.7349 35.4601V38.478C13.7462 38.8392 13.6848 39.199 13.5543 39.5361C13.4238 39.8731 13.227 40.1805 12.9754 40.44C12.7239 40.6995 12.4228 40.9059 12.09 41.0468C11.7571 41.1877 11.3994 41.2603 11.038 41.2603C10.6766 41.2603 10.3188 41.1877 9.98602 41.0468C9.6532 40.9059 9.35208 40.6995 9.10053 40.44C8.84898 40.1805 8.65214 39.8731 8.52167 39.5361C8.3912 39.199 8.32977 38.8392 8.34103 38.478V35.4889L8.17599 35.4601C7.21911 35.2768 6.28465 34.9914 5.38866 34.6087C4.0576 34.0575 2.87939 33.193 1.95427 32.0886C1.72258 31.8209 1.54587 31.5103 1.43423 31.1743C1.32259 30.8384 1.27822 30.4838 1.30364 30.1307C1.32906 29.7776 1.42378 29.4329 1.58238 29.1165C1.74099 28.8 1.96038 28.5178 2.22803 28.2861C2.49568 28.0544 2.80634 27.8777 3.14228 27.7661C3.47822 27.6545 3.83286 27.6101 4.18595 27.6355C4.53904 27.6609 4.88367 27.7556 5.20015 27.9142C5.51664 28.0729 5.79879 28.2922 6.03048 28.5599C6.39535 29.01 6.86236 29.3666 7.39271 29.5999L7.39795 29.6025C7.94394 29.841 8.5127 30.0236 9.0955 30.1474H9.10074C9.70169 30.2635 10.3101 30.3371 10.9214 30.3675C12.4025 30.3655 13.8554 29.9627 15.126 29.2017C16.4358 28.3503 16.6035 27.5644 16.6035 26.9724C16.5987 26.3465 16.3712 25.7429 15.9617 25.2696C15.5511 24.8055 15.0637 24.4156 14.5208 24.1169C13.971 23.8323 13.3862 23.6209 12.7814 23.4882C12.2214 23.3709 11.6507 23.3129 11.0786 23.3153C10.1941 23.3193 9.31077 23.2492 8.43796 23.1057C7.2665 22.9122 6.13027 22.5459 5.06644 22.0186C3.83514 21.401 2.74927 20.5285 1.88092 19.4592C0.685482 18.0191 0.0214026 16.2118 0 14.3403C0.00362236 13.1266 0.291627 11.9306 0.840915 10.8483C1.59546 9.40487 2.73061 8.19545 4.12336 7.35103C5.42024 6.55265 6.84953 5.99282 8.34365 5.69802V2.78233C8.33239 2.42109 8.39382 2.06126 8.52429 1.72422C8.65475 1.38717 8.8516 1.07977 9.10315 0.820259C9.3547 0.560748 9.65582 0.354417 9.98864 0.213512C10.3215 0.0726074 10.6792 0 11.0406 0C11.402 0 11.7598 0.0726074 12.0926 0.213512C12.4254 0.354417 12.7265 0.560748 12.9781 0.820259C13.2296 1.07977 13.4265 1.38717 13.5569 1.72422C13.6874 2.06126 13.7488 2.42109 13.7376 2.78233V5.77923L13.9026 5.81591H13.9078C14.8775 6.03851 15.8213 6.3616 16.724 6.77994C17.8502 7.28826 18.8766 7.99353 19.7549 8.86258C20.2289 9.37383 20.4866 10.0487 20.474 10.7457C20.4615 11.4428 20.1796 12.1079 19.6875 12.6017C19.1953 13.0955 18.5312 13.3797 17.8342 13.3947C17.1372 13.4097 16.4614 13.1543 15.9486 12.6821C15.5308 12.2717 15.0439 11.9383 14.5104 11.6971C13.9483 11.4342 13.3611 11.2288 12.7578 11.0841L12.5849 11.0474C12.1058 10.923 11.6166 10.8414 11.1231 10.8038C9.67582 10.794 8.25284 11.176 7.005 11.9093C6.54482 12.135 6.15303 12.4791 5.86989 12.9064C5.58675 13.3336 5.42246 13.8286 5.3939 14.3403C5.42152 14.9699 5.6574 15.5725 6.06454 16.0536L6.06978 16.0614C6.45592 16.53 6.9349 16.9135 7.47654 17.1879L7.48178 17.1931C8.0641 17.4772 8.68437 17.6757 9.32341 17.7826H9.32865C9.90707 17.8776 10.4924 17.924 11.0786 17.9214C12.0355 17.9182 12.99 18.0166 13.9262 18.2148L13.934 18.2174C15.0108 18.4539 16.0519 18.8309 17.0305 19.3386L17.041 19.3439C18.1677 19.9517 19.1772 20.7554 20.0221 21.7173L20.0274 21.7226C21.2971 23.176 21.9951 25.0399 21.9974 26.9698Z" fill="#0000C8"/>
</svg>
