<svg width="36" height="37" viewBox="0 0 36 37" fill="none" xmlns="http://www.w3.org/2000/svg">
<path d="M30.6205 19.8849V15.3098C30.6192 13.3136 30.1439 11.3463 29.2338 9.56973L35.7239 3.07958L33.9198 1.27539L0 35.1952L1.80419 36.9993L9.45932 29.3442H11.4827V30.6201C11.4827 32.312 12.1548 33.9345 13.3511 35.1309C14.5475 36.3272 16.1701 36.9993 17.862 36.9993C19.5539 36.9993 21.1765 36.3272 22.3728 35.1309C23.5692 33.9345 24.2413 32.312 24.2413 30.6201V29.3442H33.1722C33.5106 29.3442 33.8351 29.2098 34.0744 28.9705C34.3137 28.7312 34.4481 28.4067 34.4481 28.0684V24.2408C34.4481 24.0732 34.4151 23.9073 34.351 23.7526C34.2868 23.5978 34.1928 23.4572 34.0743 23.3388L30.6205 19.8849ZM21.6895 30.6201C21.6895 31.6352 21.2863 32.6088 20.5685 33.3266C19.8507 34.0444 18.8771 34.4476 17.862 34.4476C16.8468 34.4476 15.8733 34.0444 15.1555 33.3266C14.4377 32.6088 14.0344 31.6352 14.0344 30.6201V29.3442H21.6895V30.6201Z" fill="#0000C8"/>
<path d="M25.0191 4.76953C23.2697 3.57069 21.2473 2.83038 19.1374 2.61652V0H16.5857V2.61652C13.4403 2.93655 10.5252 4.41149 8.40428 6.75615C6.28331 9.10081 5.10705 12.1486 5.10296 15.3103V19.8854L1.64922 23.3392C1.53069 23.4576 1.43667 23.5983 1.37253 23.753C1.30839 23.9078 1.27538 24.0737 1.27539 24.2412V28.0688C1.28128 28.1952 1.30645 28.32 1.35003 28.4388L25.0191 4.76953Z" fill="#0000C8"/>
</svg>
