<svg width="39" height="34" viewBox="0 0 39 34" fill="none" xmlns="http://www.w3.org/2000/svg">
<path d="M3.16216 11.631C3.16216 5.59608 7.1799 0 12.6815 0C16.4994 0 19.3324 2.51076 21.0811 6.07251C22.8297 2.51097 25.6626 0 29.4806 0C34.9829 0 39 5.59703 39 11.631C39 24.5477 21.0811 33.7297 21.0811 33.7297C21.0811 33.7297 9.01079 27.9189 4.68327 18.3873H15.3732L17.0723 15.3668L19.057 22.3135L23.7047 16.3378H29.5135V14.2297H22.6737L19.943 17.7406L17.7115 9.93045L14.1403 16.2792H3.87875C4.10219 17.0006 4.37285 17.7036 4.68327 18.3873L0 18.3872V16.2791L3.87875 16.2792C3.42191 14.8045 3.16216 13.2527 3.16216 11.631Z" fill="#0000C8"/>
</svg>
