<svg width="38" height="34" viewBox="0 0 38 34" fill="none" xmlns="http://www.w3.org/2000/svg">
<path d="M38 9.37931L19 0L0 9.37931V12.8966L1.1875 13.4828V25.2069C1.1875 26.1782 1.985 26.9655 2.96875 26.9655H4.15625C5.14 26.9655 5.9375 26.1782 5.9375 25.2069V15.8276L16.625 21.1034V32.2414C16.625 33.2127 17.4225 34 18.4062 34H19.5938C20.5775 34 21.375 33.2127 21.375 32.2414V21.1034L32.0625 15.8276V25.2069C32.0625 26.1782 32.86 26.9655 33.8438 26.9655H35.0312C36.015 26.9655 36.8125 26.1782 36.8125 25.2069V13.4828L38 12.8966V9.37931Z" fill="#0000C8"/>
</svg>
