<svg width="27" height="30" viewBox="0 0 27 30" fill="none" xmlns="http://www.w3.org/2000/svg">
<path d="M0 27.058C0 28.6034 1.25377 29.8571 2.79911 29.8571H23.3259C24.8712 29.8571 26.125 28.6034 26.125 27.058V11.1964H0V27.058ZM18.6607 15.6283C18.6607 15.2435 18.9756 14.9286 19.3605 14.9286H21.6931C22.078 14.9286 22.3929 15.2435 22.3929 15.6283V17.9609C22.3929 18.3458 22.078 18.6607 21.6931 18.6607H19.3605C18.9756 18.6607 18.6607 18.3458 18.6607 17.9609V15.6283ZM18.6607 23.0926C18.6607 22.7078 18.9756 22.3929 19.3605 22.3929H21.6931C22.078 22.3929 22.3929 22.7078 22.3929 23.0926V25.4252C22.3929 25.8101 22.078 26.125 21.6931 26.125H19.3605C18.9756 26.125 18.6607 25.8101 18.6607 25.4252V23.0926ZM11.1964 15.6283C11.1964 15.2435 11.5113 14.9286 11.8962 14.9286H14.2288C14.6137 14.9286 14.9286 15.2435 14.9286 15.6283V17.9609C14.9286 18.3458 14.6137 18.6607 14.2288 18.6607H11.8962C11.5113 18.6607 11.1964 18.3458 11.1964 17.9609V15.6283ZM11.1964 23.0926C11.1964 22.7078 11.5113 22.3929 11.8962 22.3929H14.2288C14.6137 22.3929 14.9286 22.7078 14.9286 23.0926V25.4252C14.9286 25.8101 14.6137 26.125 14.2288 26.125H11.8962C11.5113 26.125 11.1964 25.8101 11.1964 25.4252V23.0926ZM3.73214 15.6283C3.73214 15.2435 4.04704 14.9286 4.43192 14.9286H6.76451C7.14939 14.9286 7.46429 15.2435 7.46429 15.6283V17.9609C7.46429 18.3458 7.14939 18.6607 6.76451 18.6607H4.43192C4.04704 18.6607 3.73214 18.3458 3.73214 17.9609V15.6283ZM3.73214 23.0926C3.73214 22.7078 4.04704 22.3929 4.43192 22.3929H6.76451C7.14939 22.3929 7.46429 22.7078 7.46429 23.0926V25.4252C7.46429 25.8101 7.14939 26.125 6.76451 26.125H4.43192C4.04704 26.125 3.73214 25.8101 3.73214 25.4252V23.0926ZM23.3259 3.73214H20.5268V0.933036C20.5268 0.419866 20.1069 0 19.5938 0H17.7277C17.2145 0 16.7946 0.419866 16.7946 0.933036V3.73214H9.33036V0.933036C9.33036 0.419866 8.91049 0 8.39732 0H6.53125C6.01808 0 5.59821 0.419866 5.59821 0.933036V3.73214H2.79911C1.25377 3.73214 0 4.98591 0 6.53125V9.33036H26.125V6.53125C26.125 4.98591 24.8712 3.73214 23.3259 3.73214Z" fill="#0000C8"/>
</svg>
