<svg width="35" height="26" viewBox="0 0 35 26" fill="none" xmlns="http://www.w3.org/2000/svg">
<path d="M10.5021 20.1487H21.0012C23.8994 20.1487 26.2508 17.7974 26.2508 14.8992H28.0006C31.8612 14.8992 35 11.7604 35 7.89978C35 4.03918 31.8612 0.900391 28.0006 0.900391H6.56498C5.8377 0.900391 5.2526 1.4855 5.2526 2.21278V14.8992C5.2526 17.7974 7.60396 20.1487 10.5021 20.1487ZM28.0006 4.40008C29.9309 4.40008 31.5003 5.96948 31.5003 7.89978C31.5003 9.83008 29.9309 11.3995 28.0006 11.3995H26.2508V4.40008H28.0006ZM30.609 25.3983H2.64423C0.0413356 25.3983 -0.691413 21.8986 0.675655 21.8986H32.5721C33.9392 21.8986 33.2173 25.3983 30.609 25.3983Z" fill="#0000C8"/>
</svg>
