<svg width="48" height="48" viewBox="0 0 48 48" fill="none" xmlns="http://www.w3.org/2000/svg">
<path d="M35.9991 30.001C34.4279 30.0023 32.9199 30.6198 31.7991 31.721L15.9991 24.681C15.9991 24.441 15.9991 24.241 15.9991 24.001C15.9991 23.761 15.9991 23.561 15.9991 23.341L31.7991 16.281C32.7887 17.251 34.0836 17.8486 35.4639 17.9722C36.8441 18.0958 38.2246 17.7378 39.3708 16.9591C40.5171 16.1804 41.3585 15.0288 41.752 13.7001C42.1456 12.3714 42.0671 10.9475 41.5299 9.67007C40.9927 8.39268 40.0298 7.34062 38.8049 6.69258C37.58 6.04455 36.1686 5.84049 34.8103 6.11506C33.452 6.38963 32.2306 7.1259 31.3536 8.19884C30.4766 9.27177 29.998 10.6152 29.9991 12.001V12.681L14.1991 19.721C13.3558 18.8925 12.2866 18.3315 11.1256 18.1086C9.96466 17.8857 8.76372 18.0107 7.67355 18.4679C6.58338 18.9251 5.65257 19.6942 4.99796 20.6786C4.34336 21.663 3.99414 22.8188 3.99414 24.001C3.99414 25.1831 4.34336 26.339 4.99796 27.3233C5.65257 28.3077 6.58338 29.0768 7.67355 29.534C8.76372 29.9913 9.96466 30.1162 11.1256 29.8933C12.2866 29.6704 13.3558 29.1095 14.1991 28.281L29.9991 35.341V36.001C29.9991 37.1876 30.351 38.3477 31.0103 39.3344C31.6696 40.3211 32.6066 41.0901 33.703 41.5442C34.7993 41.9984 36.0057 42.1172 37.1696 41.8857C38.3335 41.6542 39.4026 41.0827 40.2417 40.2436C41.0808 39.4045 41.6523 38.3354 41.8838 37.1715C42.1153 36.0076 41.9965 34.8012 41.5424 33.7049C41.0882 32.6085 40.3192 31.6714 39.3325 31.0121C38.3458 30.3529 37.1858 30.001 35.9991 30.001Z" fill="#0000C8"/>
</svg>
