<svg width="1440" height="1351" viewBox="0 0 1440 1351" fill="none" xmlns="http://www.w3.org/2000/svg">
<g style="mix-blend-mode:luminosity" opacity="0.04">
<path d="M1671.55 1350.06C1671.55 1350.06 1743.86 1116.88 1583.26 1036.01C1422.65 955.134 1373.93 1148.57 1215.41 1073.08C1056.89 997.597 1172.85 957.46 1071.59 867.493C970.326 777.525 836.98 826.52 732.489 792.141C627.998 757.763 710.223 677.832 588.459 637.425C466.695 597.018 399.035 633.349 275.253 574.404C151.47 515.458 161.498 484.639 127.017 459.431C92.5359 434.222 20.7412 453.205 20.7412 453.205" stroke="#7209B7" stroke-width="6"/>
<path d="M1418.44 820.813C1399.42 781.58 1390.82 730.76 1323.57 709.283C1256.32 687.805 1203.21 735.896 1112.9 692.89C1022.59 649.884 1074.02 550.016 961.653 494.751C849.289 439.485 747.993 552.958 683.064 523.357C618.135 493.756 599.818 408.572 543.865 373.139C487.911 337.705 481.354 392.148 360.098 334.405C238.842 276.663 270.389 101.411 111.396 36.6845C-47.5957 -28.0423 -205.256 47.6046 -205.256 47.6046" stroke="#4CC9F0" stroke-width="2"/>
<path d="M1654.95 1303.32C1653.49 1300.3 1719.57 1081.15 1566.15 1004.85C1412.73 928.542 1363.66 1110.8 1210.39 1037.81C1057.12 964.821 1168.12 920.089 1066 832.792C963.887 745.494 833.006 799.448 731.558 765.437C630.11 731.426 704.601 651.091 587.9 611.066C471.198 571.042 408.238 608.767 284.65 549.914C161.062 491.061 172.745 449.132 128.687 420.883C84.6278 392.635 6.22813 415.976 6.22813 415.976" stroke="#7209B7" stroke-width="5.69231"/>
<path d="M1638.35 1256.59C1635.42 1250.55 1695.28 1045.43 1549.04 973.692C1402.8 901.957 1353.4 1073.03 1205.38 1002.54C1057.35 932.053 1163.38 882.726 1060.41 798.098C957.444 713.469 829.029 772.383 730.624 738.74C632.22 705.096 698.976 624.357 587.337 584.715C475.698 545.074 417.438 584.191 294.045 525.431C170.651 466.67 183.99 413.631 130.353 382.343C76.7163 351.055 -8.28838 378.755 -8.28838 378.755" stroke="#7209B7" stroke-width="5.38462"/>
<path d="M1621.74 1209.86C1617.35 1200.81 1670.99 1009.71 1531.93 942.544C1392.87 875.378 1343.13 1035.27 1200.35 967.282C1057.58 899.291 1158.64 845.37 1054.82 763.41C950.996 681.451 825.046 745.325 729.684 712.049C634.323 678.773 693.346 597.63 586.769 558.371C480.192 519.111 426.633 559.622 303.434 500.955C180.234 442.287 195.228 378.137 132.014 343.809C68.7992 309.481 -22.8105 341.54 -22.8105 341.54" stroke="#480CA8" stroke-width="5.07692"/>
<path d="M1605.13 1163.15C1599.28 1151.08 1646.69 974.006 1514.82 911.408C1382.94 848.811 1332.86 997.525 1195.33 932.033C1057.8 866.541 1153.9 808.025 1049.23 728.735C944.548 649.445 821.063 718.279 728.745 685.37C636.427 652.462 687.716 570.915 586.201 532.038C484.687 493.161 435.828 535.065 312.823 476.49C189.818 417.915 206.466 342.655 133.674 305.287C60.8821 267.919 -37.3326 304.337 -37.3326 304.337" stroke="#173ED4" stroke-width="4.76923"/>
<path d="M1588.52 1116.43C1581.2 1101.35 1622.39 938.302 1497.7 880.274C1373 822.245 1322.58 959.779 1190.3 896.785C1058.02 833.791 1149.16 770.681 1043.62 694.06C938.093 617.44 817.073 691.234 727.798 658.693C638.524 626.152 682.078 544.2 585.626 505.706C489.174 467.212 445.015 510.51 322.205 452.027C199.394 393.544 217.698 307.174 135.328 266.766C52.9583 226.358 -51.8614 267.135 -51.8614 267.135" stroke="#1D4DD7" stroke-width="4.46154"/>
<path d="M1571.9 1069.74C1563.12 1051.63 1598.09 902.617 1480.57 849.158C1363.06 795.698 1312.3 922.052 1185.27 861.556C1058.23 801.061 1144.41 733.356 1038.02 659.404C931.634 585.453 813.08 664.207 726.848 632.034C640.617 599.86 676.438 517.505 585.048 479.393C493.658 441.281 454.199 485.972 331.583 427.582C208.967 369.192 228.926 271.711 136.979 228.264C45.0309 184.816 -66.394 229.951 -66.394 229.951" stroke="#235DDA" stroke-width="4.15385"/>
<path d="M1555.27 1023.06C1545.03 1001.93 1573.77 866.943 1463.44 818.052C1353.11 769.161 1302.02 884.334 1180.22 826.337C1058.43 768.34 1139.65 696.041 1032.41 624.759C925.168 553.477 809.079 637.191 725.891 605.385C642.702 573.579 670.789 490.819 584.462 453.09C498.134 415.361 463.376 461.445 340.954 403.147C218.532 344.85 240.147 236.259 138.621 189.772C37.0956 143.284 -80.9342 192.778 -80.9342 192.778" stroke="#296CDE" stroke-width="3.84615"/>
<path d="M1533.34 987.523C1521.63 963.38 1544.15 842.42 1441 798.099C1337.84 753.777 1286.42 857.77 1169.87 802.271C1053.33 746.773 1129.58 669.878 1021.48 601.266C913.39 532.653 799.766 621.327 719.621 589.889C639.476 558.45 659.829 475.287 578.564 437.94C497.299 400.593 467.24 448.07 345.013 389.865C222.785 331.66 246.055 211.959 134.952 162.432C23.8488 112.905 -100.786 166.757 -100.786 166.757" stroke="#2F7CE1" stroke-width="3.53846"/>
<path d="M1510.37 954.166C1497.2 927.005 1513.49 820.074 1417.52 780.321C1321.55 740.568 1269.78 833.38 1158.49 780.38C1047.19 727.38 1118.48 645.891 1009.53 579.948C900.58 514.005 789.421 607.639 712.32 576.567C635.218 545.496 647.837 461.929 571.634 424.965C495.431 388.001 470.073 436.871 348.04 378.758C226.007 320.646 250.932 189.835 130.251 137.268C9.56994 84.7004 -121.67 142.912 -121.67 142.912" stroke="#358BE4" stroke-width="3.23077"/>
<path d="M1487.39 920.817C1472.76 890.638 1482.83 797.735 1394.04 762.55C1305.25 727.366 1253.14 808.999 1147.09 758.497C1041.04 707.996 1107.37 621.912 997.564 558.638C887.762 495.364 779.069 593.958 705.01 563.254C630.952 532.551 635.837 448.579 564.697 411.998C493.556 375.416 472.898 425.68 351.059 367.66C229.22 309.64 255.801 167.719 125.542 112.111C-4.71659 56.5042 -142.562 119.075 -142.562 119.075" stroke="#3A9BE7" stroke-width="2.92308"/>
<path d="M1464.41 887.474C1448.31 854.277 1452.16 775.401 1370.55 744.786C1288.94 714.171 1236.5 784.623 1135.7 736.62C1034.89 688.617 1096.25 597.938 985.596 537.334C874.94 476.73 768.713 580.283 697.698 549.947C626.682 519.611 623.833 435.235 557.755 399.036C491.677 362.838 475.72 414.494 354.075 356.567C232.43 298.639 260.666 145.608 120.83 86.9608C-19.0068 28.3138 -163.457 95.2431 -163.457 95.2431" stroke="#40AAEA" stroke-width="2.61538"/>
<path d="M1441.43 854.137C1423.87 817.922 1421.49 753.074 1347.06 727.028C1272.64 700.982 1219.86 760.253 1124.3 714.749C1028.74 669.244 1085.14 573.971 973.628 516.036C862.118 458.101 758.356 566.614 690.384 536.646C622.412 506.677 611.829 421.898 550.813 386.081C489.797 350.265 478.54 403.315 357.09 345.48C235.639 287.645 265.531 123.503 116.116 61.8163C-33.2981 0.129395 -184.353 71.4175 -184.353 71.4175" stroke="#46BAED" stroke-width="2.30769"/>
</g>
</svg>
