<svg width="1440" height="1841" viewBox="0 0 1440 1841" fill="none" xmlns="http://www.w3.org/2000/svg">
<g style="mix-blend-mode:luminosity" opacity="0.04">
<path d="M1469.32 1839.32C1469.32 1839.32 1591.96 1570.6 1427.35 1462.11C1262.74 1353.62 1173.55 1577.46 1010.3 1475.49C847.041 1373.52 983.632 1335.79 886.857 1221.47C790.083 1107.15 632.498 1153.89 522.115 1104.79C411.731 1055.68 517.851 968.3 389.283 910.675C260.714 853.051 178.691 890.275 51.2075 810.647C-76.2756 731.018 -59.5407 695.541 -93.4706 663.007C-127.4 630.473 -210.913 646.921 -210.913 646.921" stroke="#7209B7" stroke-width="6"/>
<path d="M1282.21 1195.05C1268.06 1147.26 1267.61 1086.69 1196.46 1055.86C1125.3 1025.02 1057.38 1077.29 964.373 1019.2C871.362 961.101 946.718 847.697 831.311 773.343C715.904 698.989 582.468 824.314 515.361 784.099C448.253 743.883 443.153 642.032 387.109 595.685C331.065 549.338 313.949 612.929 189.067 534.926C64.186 456.922 130.928 253.082 -34.795 163.743C-200.518 74.4051 -390.025 150.531 -390.025 150.531" stroke="#4CC9F0" stroke-width="2"/>
<path d="M1459.21 1782.9C1458.13 1779.22 1571.3 1526.51 1413.88 1423.99C1256.45 1321.48 1168.91 1532.12 1011.05 1433.53C853.2 1334.93 985.08 1291.38 886.873 1180.13C788.665 1068.89 632.938 1121.67 525.883 1073.25C418.829 1024.83 516.393 936.337 393.404 879.58C270.414 822.823 193.383 862.076 66.1004 782.572C-61.1826 703.069 -40.6008 654.64 -84.6686 617.737C-128.736 580.833 -220.403 601.872 -220.403 601.872" stroke="#7209B7" stroke-width="5.69231"/>
<path d="M1449.11 1726.48C1446.93 1719.13 1550.63 1482.43 1400.4 1385.89C1250.17 1289.34 1164.25 1486.79 1011.8 1391.57C859.355 1296.35 986.525 1246.98 886.884 1138.81C787.243 1030.64 633.373 1089.46 529.648 1041.73C425.922 993.994 514.931 904.384 397.521 848.495C280.11 792.605 208.072 833.886 80.9888 754.508C-46.094 675.129 -21.6656 613.749 -75.8714 572.476C-130.077 531.203 -229.897 556.832 -229.897 556.832" stroke="#7209B7" stroke-width="5.38462"/>
<path d="M1438.99 1670.07C1435.72 1659.05 1529.96 1438.36 1386.91 1347.79C1243.87 1257.22 1159.59 1441.47 1012.55 1349.62C865.501 1257.77 987.961 1202.58 886.886 1097.49C785.812 992.392 633.8 1057.26 533.404 1010.21C433.007 963.159 513.461 872.437 401.629 817.415C289.797 762.393 222.752 805.702 95.8691 726.449C-31.0136 647.195 -2.73852 572.864 -67.0823 527.222C-131.426 481.579 -239.399 511.799 -239.399 511.799" stroke="#480CA8" stroke-width="5.07692"/>
<path d="M1428.87 1613.68C1424.51 1598.97 1509.28 1394.3 1373.43 1309.7C1237.57 1225.1 1154.93 1396.16 1013.29 1307.69C871.646 1219.21 989.395 1158.2 886.888 1056.18C784.38 954.158 634.226 1025.07 537.158 978.705C440.09 932.338 511.989 840.503 405.735 786.348C299.482 732.193 237.43 777.531 110.747 698.402C-15.9351 619.274 16.1867 531.992 -58.2951 481.98C-132.777 431.968 -248.903 466.778 -248.903 466.778" stroke="#173ED4" stroke-width="4.76923"/>
<path d="M1418.74 1557.28C1413.3 1538.9 1488.6 1350.24 1359.93 1271.62C1231.26 1192.99 1150.26 1350.85 1014.02 1265.75C877.783 1180.65 990.822 1113.82 886.882 1014.87C782.941 915.926 634.644 992.886 540.905 947.202C447.166 901.519 510.51 808.571 409.835 755.283C309.16 701.996 252.101 749.362 125.619 670.359C-0.863452 591.355 35.1051 491.122 -49.5145 436.741C-134.134 382.359 -258.414 421.76 -258.414 421.76" stroke="#1D4DD7" stroke-width="4.46154"/>
<path d="M1408.61 1500.91C1402.07 1478.86 1467.91 1306.2 1346.43 1233.55C1224.95 1160.9 1145.58 1305.56 1014.75 1223.84C883.912 1142.12 992.241 1069.46 886.867 973.588C781.493 877.716 635.054 960.722 544.644 915.721C454.234 870.721 509.021 776.66 413.926 724.241C318.83 671.821 266.764 721.215 140.481 642.337C14.1991 563.458 54.0145 450.274 -40.7432 391.523C-135.501 332.772 -267.934 376.763 -267.934 376.763" stroke="#235DDA" stroke-width="4.15385"/>
<path d="M1398.47 1444.55C1390.84 1418.82 1447.21 1262.18 1332.92 1195.5C1218.63 1128.82 1140.9 1260.28 1015.46 1181.94C890.032 1103.59 993.65 1025.11 886.843 932.314C780.035 839.516 635.454 928.568 548.373 884.251C461.292 839.934 507.524 744.761 418.007 693.208C328.49 641.656 281.417 693.078 155.335 614.325C29.2525 535.571 72.9145 409.437 -31.9811 346.316C-136.877 283.195 -277.463 331.777 -277.463 331.777" stroke="#296CDE" stroke-width="3.84615"/>
<path d="M1380.39 1400.89C1371.67 1371.48 1418.57 1230.85 1311.47 1170.15C1204.37 1109.44 1128.27 1227.71 1008.25 1152.74C888.217 1077.76 987.125 993.465 878.885 903.741C770.644 814.017 627.92 909.114 544.168 865.481C460.416 821.848 498.093 725.561 414.155 674.876C330.217 624.191 288.136 677.642 162.254 599.014C36.372 520.385 83.8808 381.299 -31.1529 313.809C-146.186 246.319 -294.927 299.491 -294.927 299.491" stroke="#2F7CE1" stroke-width="3.53846"/>
<path d="M1360.77 1359.7C1350.96 1326.62 1388.39 1202 1288.48 1147.27C1188.57 1092.54 1114.11 1197.61 999.485 1126.01C884.86 1054.41 979.057 964.294 869.383 877.644C759.709 790.994 618.843 892.136 538.42 849.187C457.997 806.237 487.118 708.838 408.759 659.02C330.399 609.203 293.312 664.682 167.63 586.178C41.9481 507.675 93.3037 355.638 -31.8679 283.778C-157.039 211.918 -313.933 269.682 -313.933 269.682" stroke="#358BE4" stroke-width="3.23077"/>
<path d="M1341.14 1318.53C1330.24 1281.77 1358.21 1173.16 1265.48 1124.41C1172.76 1075.65 1099.94 1167.52 990.714 1099.3C881.493 1031.08 970.98 935.134 859.873 851.558C748.766 767.982 609.757 875.17 532.663 832.904C455.569 790.638 476.135 692.126 403.354 643.176C330.574 594.226 298.479 651.733 172.997 573.355C47.5155 494.976 102.718 329.989 -32.5918 253.759C-167.901 177.53 -332.948 239.883 -332.948 239.883" stroke="#3A9BE7" stroke-width="2.92308"/>
<path d="M1321.5 1277.36C1309.52 1236.93 1328.01 1144.33 1242.48 1101.55C1156.94 1058.76 1085.76 1137.43 981.938 1072.59C878.121 1007.74 962.897 905.979 850.357 825.477C737.817 744.976 600.666 858.209 526.9 816.627C453.135 775.044 465.146 675.419 397.944 627.336C330.742 579.254 303.64 638.789 178.359 560.536C53.0769 482.283 112.126 304.344 -33.3215 223.745C-178.769 143.146 -351.969 210.09 -351.969 210.09" stroke="#40AAEA" stroke-width="2.61538"/>
<path d="M1301.86 1236.19C1288.79 1192.09 1297.82 1115.51 1219.47 1078.7C1141.13 1041.88 1071.57 1107.36 973.159 1045.89C874.745 984.414 954.811 876.831 840.838 799.403C726.864 721.976 591.571 841.255 521.134 800.356C450.698 759.457 454.153 658.719 392.53 611.504C330.907 564.289 308.798 625.853 183.717 547.724C58.6353 469.596 121.531 278.706 -34.0546 193.737C-189.64 108.769 -370.994 180.304 -370.994 180.304" stroke="#46BAED" stroke-width="2.30769"/>
</g>
<g filter="url(#filter0_f_1282_2711)">
<path d="M1188.54 1412.74C1118.21 1380.66 1122.86 1097.93 1112.41 1078.31L1072.32 1081.11C1067.05 1049.01 1064.19 953.304 1094.89 827.346C1133.26 669.899 1168.64 778.416 1269.69 852.134C1370.74 925.852 1395.71 836.55 1523.27 753.649C1650.84 670.748 1936.06 822.243 1915.35 1143.09C1894.63 1463.94 1863.14 1281.16 1785.3 1320.5C1707.47 1359.85 1693.51 1249.22 1528.59 1146.67C1363.68 1044.12 1460.2 1313 1437.79 1439.12C1415.39 1565.23 1258.88 1444.83 1188.54 1412.74Z" fill="#0000C8"/>
</g>
<g filter="url(#filter1_f_1282_2711)">
<path d="M1690.8 996.133C1641.58 789.808 1607.19 913.715 1518.21 855.94C1538.19 815.423 1551.79 727.952 1446.31 702.204C1314.46 670.018 1366.95 807.738 1310.41 945.708C1253.87 1083.68 1111.04 1250.83 1131.96 1326.83C1152.88 1402.82 1217.39 1362.69 1398.57 1407.13C1579.75 1451.58 1566.08 1345.89 1617.31 1314.59C1668.53 1283.29 1740.02 1202.46 1690.8 996.133Z" fill="#7209B7" fill-opacity="0.63"/>
</g>
<g filter="url(#filter2_f_1282_2711)">
<path d="M1103.23 1095.53C992.511 1189.28 1086.21 1289.34 1146.9 1327.66C1156.16 1330.04 1187.15 1314.37 1237.1 1232.59C1299.53 1130.36 1340.36 1194.62 1447.3 1213.99C1554.24 1233.37 1715.74 1233.68 1630.73 1057.48C1545.72 881.29 1510.67 1034.95 1418.21 962.127C1325.75 889.308 1241.62 978.348 1103.23 1095.53Z" fill="white"/>
</g>
<defs>
<filter id="filter0_f_1282_2711" x="769.005" y="431.285" width="1447.41" height="1364.18" filterUnits="userSpaceOnUse" color-interpolation-filters="sRGB">
<feFlood flood-opacity="0" result="BackgroundImageFix"/>
<feBlend mode="normal" in="SourceGraphic" in2="BackgroundImageFix" result="shape"/>
<feGaussianBlur stdDeviation="150" result="effect1_foregroundBlur_1282_2711"/>
</filter>
<filter id="filter1_f_1282_2711" x="929.884" y="497.475" width="977.446" height="1120.41" filterUnits="userSpaceOnUse" color-interpolation-filters="sRGB">
<feFlood flood-opacity="0" result="BackgroundImageFix"/>
<feBlend mode="normal" in="SourceGraphic" in2="BackgroundImageFix" result="shape"/>
<feGaussianBlur stdDeviation="100" result="effect1_foregroundBlur_1282_2711"/>
</filter>
<filter id="filter2_f_1282_2711" x="751.853" y="635.771" width="1202.72" height="992.111" filterUnits="userSpaceOnUse" color-interpolation-filters="sRGB">
<feFlood flood-opacity="0" result="BackgroundImageFix"/>
<feBlend mode="normal" in="SourceGraphic" in2="BackgroundImageFix" result="shape"/>
<feGaussianBlur stdDeviation="150" result="effect1_foregroundBlur_1282_2711"/>
</filter>
</defs>
</svg>
