<svg width="45" height="45" viewBox="0 0 45 45" fill="none" xmlns="http://www.w3.org/2000/svg">
<path d="M22.5004 30.0004C22.0623 30.0013 21.6377 29.8487 21.3004 29.5691L10.0504 20.1941C9.66749 19.8759 9.42669 19.4186 9.38098 18.9228C9.33527 18.427 9.48839 17.9333 9.80664 17.5504C10.1249 17.1675 10.5822 16.9267 11.078 16.881C11.5738 16.8353 12.0675 16.9884 12.4504 17.3066L22.5004 25.7066L32.5504 17.6066C32.7422 17.4509 32.9629 17.3346 33.1998 17.2644C33.4366 17.1942 33.6851 17.1715 33.9307 17.1977C34.1764 17.2238 34.4145 17.2982 34.6313 17.4167C34.8481 17.5351 35.0394 17.6953 35.1941 17.8879C35.3659 18.0807 35.4959 18.3069 35.5761 18.5522C35.6564 18.7976 35.6851 19.0569 35.6604 19.3139C35.6358 19.5709 35.5583 19.8201 35.4329 20.0457C35.3075 20.2714 35.1369 20.4687 34.9316 20.6254L23.6816 29.6816C23.3346 29.917 22.9187 30.0292 22.5004 30.0004Z" fill="#212427"/>
</svg>
