<svg width="27" height="15" viewBox="0 0 27 15" fill="none" xmlns="http://www.w3.org/2000/svg">
<path d="M13.5416 0.876556C13.9797 0.875701 14.4043 1.02828 14.7416 1.30781L25.9916 10.6828C26.3745 11.0011 26.6153 11.4584 26.661 11.9542C26.7067 12.45 26.5536 12.9437 26.2353 13.3266C25.9171 13.7095 25.4598 13.9503 24.964 13.996C24.4682 14.0417 23.9745 13.8886 23.5916 13.5703L13.5416 5.17031L3.49159 13.2703C3.2998 13.4261 3.07913 13.5424 2.84224 13.6126C2.60535 13.6827 2.35693 13.7054 2.11126 13.6793C1.86558 13.6531 1.62748 13.5787 1.41067 13.4603C1.19385 13.3418 1.00257 13.1817 0.847845 12.9891C0.676132 12.7963 0.546085 12.5701 0.465849 12.3247C0.385612 12.0793 0.35692 11.82 0.381563 11.563C0.406206 11.306 0.483654 11.0569 0.60906 10.8312C0.734467 10.6055 0.905128 10.4082 1.11035 10.2516L12.3603 1.19531C12.7074 0.959965 13.1233 0.847736 13.5416 0.876556Z" fill="#212427"/>
</svg>
