<svg width="68" height="68" viewBox="0 0 68 68" fill="none" xmlns="http://www.w3.org/2000/svg">
<path d="M60.8288 19.3375C63.2088 23.6923 64.5632 28.6875 64.5632 34C64.5632 45.2738 58.4545 55.1253 49.368 60.4208L58.7038 33.4277C60.4463 29.0643 61.0272 25.5765 61.0272 22.4797C61.0272 21.3322 60.9535 20.2725 60.8288 19.3375ZM38.216 19.6322C40.0492 19.5472 41.7067 19.3347 41.7067 19.3347C43.3557 19.1222 43.163 16.6997 41.5168 16.7875C41.5168 16.7875 36.5443 17.17 33.3568 17.17C30.3422 17.17 25.2818 16.745 25.2818 16.745C23.6243 16.66 23.409 19.1675 25.0693 19.2525C25.0693 19.2525 26.5993 19.4253 28.2568 19.5075L33.0168 32.555L26.3018 52.615L15.1697 19.55C17.0085 19.465 18.666 19.2667 18.666 19.2667C20.3235 19.0542 20.128 16.6317 18.4818 16.728C18.4818 16.728 13.5348 17.119 10.3388 17.119C9.77217 17.119 9.09783 17.0963 8.38383 17.0765C13.9145 8.925 23.3325 3.4425 34 3.4425C41.9588 3.4425 49.2008 6.47983 54.6437 11.4693C54.5133 11.4608 54.3858 11.4438 54.2442 11.4438C51.2408 11.4438 49.1102 14.059 49.1102 16.8668C49.1102 19.3885 50.5637 21.522 52.1135 24.038C53.278 26.078 54.6352 28.6932 54.6352 32.4728C54.6352 35.0653 53.6322 38.1225 52.309 42.33L49.2632 52.4875L38.2132 19.5925L38.216 19.6322ZM34 64.5547C30.9995 64.5547 28.1038 64.1212 25.364 63.3165L34.5355 36.6662L43.928 62.4127C43.996 62.5628 44.0697 62.6988 44.149 62.8348C40.9757 63.9483 37.5615 64.5603 34 64.5603M3.43117 34C3.43117 29.5687 4.38317 25.3583 6.08033 21.5617L20.655 61.5088C15.492 59.0017 11.1387 55.0923 8.09289 50.2277C5.04704 45.3631 3.43156 39.7395 3.43117 34ZM34 0C15.2575 0 0 15.2575 0 34C0 52.7425 15.2575 68 34 68C52.7425 68 68 52.7425 68 34C68 15.2575 52.7425 0 34 0Z" fill="#868686"/>
</svg>
