<svg width="1440" height="1381" viewBox="0 0 1440 1381" fill="none" xmlns="http://www.w3.org/2000/svg">
<g style="mix-blend-mode:luminosity" opacity="0.16">
<path d="M526.54 -973C526.54 -973 731.683 -762.631 642.409 -649.767C553.135 -536.903 392.681 -713.832 301.911 -606.634C211.142 -499.436 335.886 -485.471 303.444 -376.549C271.002 -267.626 125.815 -286.435 56.5712 -230.673C-12.6725 -174.911 107.274 -115.144 26.795 -49.8301C-53.6838 15.4841 -134.371 -5.17305 -205.25 78.5353C-276.13 162.244 -248.61 189.946 -262.977 221.778C-277.344 253.611 -350.988 250.65 -350.988 250.65" stroke="#0000C8" stroke-width="6"/>
<path d="M631.681 -405.865C639.251 -363.768 662.918 -312.686 617.958 -277.426C572.998 -242.167 497.681 -277.343 445.968 -216.27C394.254 -155.197 499.794 -69.4976 436.528 8.19174C373.262 85.8811 216.315 -2.28296 178.329 40.3484C140.342 82.9798 176.637 169.442 149.974 215.796C123.312 262.149 84.3355 210.813 14.9021 292.813C-54.5312 374.813 79.9526 537.818 -17.8108 634.694C-115.574 731.57 -298.075 692.166 -298.075 692.166" stroke="#4CC9F0" stroke-width="2"/>
<path d="M540.795 -924.153C541.377 -920.914 732.561 -722.798 646.696 -615.903C560.83 -509.009 406.925 -675.034 319.16 -571.384C231.394 -467.734 354.661 -448.251 319.848 -341.731C285.035 -235.211 138.944 -259.355 72.1044 -204.603C5.26509 -149.851 118.777 -88.0311 42.4376 -24.1754C-33.9015 39.6803 -111.38 16.6632 -182.148 100.24C-252.917 183.817 -217.169 221.927 -237.951 258.763C-258.733 295.599 -340.751 289.834 -340.751 289.834" stroke="#060FCB" stroke-width="5.69231"/>
<path d="M555.045 -875.308C556.209 -868.832 733.433 -682.968 650.976 -582.043C568.52 -481.118 421.164 -636.239 336.403 -536.137C251.642 -436.036 373.431 -411.035 336.247 -306.917C299.063 -202.8 152.067 -232.278 87.6319 -178.537C23.197 -124.795 130.274 -60.921 58.0745 1.4762C-14.1249 63.8734 -88.3947 38.4965 -159.052 121.942C-229.709 205.387 -185.733 253.906 -212.93 295.745C-240.128 337.584 -330.519 329.016 -330.519 329.016" stroke="#0C1FCE" stroke-width="5.38462"/>
<path d="M569.287 -826.473C571.034 -816.759 734.298 -643.148 655.25 -548.192C576.203 -453.237 435.395 -597.454 353.639 -500.9C271.882 -404.346 392.194 -373.827 352.639 -272.112C313.084 -170.398 165.183 -205.211 103.153 -152.48C41.1222 -99.7477 141.764 -33.8204 73.7046 27.1182C5.64489 88.0568 -65.4163 60.32 -135.962 143.634C-206.508 226.948 -154.304 285.874 -187.917 332.717C-221.529 379.559 -320.294 368.188 -320.294 368.188" stroke="#122ED1" stroke-width="5.07692"/>
<path d="M583.522 -777.644C585.851 -764.691 735.155 -603.333 659.516 -514.347C583.877 -425.361 449.619 -558.674 370.867 -465.668C292.114 -372.663 410.949 -336.626 369.023 -237.313C327.097 -138.001 178.291 -178.15 118.665 -126.428C59.0394 -74.7062 153.247 -6.72535 89.3268 52.7547C25.4068 112.235 -42.446 82.1382 -112.881 165.321C-183.316 248.503 -122.883 317.838 -162.911 369.683C-202.939 421.529 -310.077 407.355 -310.077 407.355" stroke="#173ED4" stroke-width="4.76923"/>
<path d="M597.746 -728.82C600.658 -712.629 736.002 -563.523 663.772 -480.507C591.542 -397.491 463.833 -519.9 388.085 -430.442C312.337 -340.985 429.695 -299.43 385.397 -202.52C341.1 -105.61 191.39 -151.094 134.168 -100.382C76.9467 -49.6705 164.719 20.3639 104.939 78.3855C45.1588 136.407 -19.4855 103.95 -89.809 187.002C-160.133 270.053 -91.4724 349.795 -137.915 406.644C-184.358 463.493 -299.869 446.515 -299.869 446.515" stroke="#1D4DD7" stroke-width="4.46154"/>
<path d="M611.961 -680.007C615.455 -660.577 736.839 -523.725 668.018 -446.678C599.197 -369.632 478.037 -481.136 405.293 -395.227C332.549 -309.317 448.43 -262.244 401.761 -167.737C355.093 -73.2298 204.478 -124.049 149.661 -74.347C94.8438 -24.6453 176.182 47.4426 120.541 104.006C64.9005 160.569 3.46477 125.752 -66.7475 208.672C-136.96 291.592 -60.0716 381.742 -112.929 443.594C-165.787 505.447 -289.672 485.666 -289.672 485.666" stroke="#235DDA" stroke-width="4.15385"/>
<path d="M626.159 -631.206C630.235 -608.538 737.66 -483.939 672.247 -412.862C606.835 -341.785 492.224 -442.385 422.484 -360.024C352.745 -277.662 467.148 -225.071 418.109 -132.967C369.069 -40.862 217.55 -97.0159 165.137 -48.3243C112.724 0.367322 187.627 74.5088 136.127 129.613C84.6257 184.718 26.3985 147.541 -43.7025 230.33C-113.804 313.118 -28.6875 413.676 -87.9603 480.532C-147.233 547.388 -279.492 524.803 -279.492 524.803" stroke="#296CDE" stroke-width="3.84615"/>
<path d="M628.944 -592.069C633.602 -566.163 727.067 -453.817 665.063 -388.709C603.059 -323.602 494.998 -413.298 428.262 -334.485C361.527 -255.672 474.454 -197.562 423.043 -107.86C371.632 -18.1582 219.208 -79.6471 169.2 -31.9656C119.192 15.716 187.66 91.9111 140.299 145.557C92.9378 199.203 37.919 159.667 -32.0707 242.324C-102.06 324.981 -8.71637 435.946 -74.4043 507.805C-140.092 579.665 -280.725 554.277 -280.725 554.277" stroke="#2F7CE1" stroke-width="3.53846"/>
<path d="M629.509 -554.813C634.749 -525.669 714.255 -425.575 655.66 -366.437C597.064 -307.299 495.552 -386.091 431.821 -310.826C368.09 -235.561 479.539 -171.934 425.757 -84.6342C371.976 2.66542 218.647 -64.1586 171.043 -17.487C123.439 29.1845 185.473 107.433 142.251 159.62C99.0299 211.808 47.2196 169.912 -22.6588 252.437C-92.5373 334.963 9.03478 456.336 -63.0683 533.199C-135.171 610.062 -284.177 581.87 -284.177 581.87" stroke="#358BE4" stroke-width="3.23077"/>
<path d="M630.062 -517.57C635.885 -485.188 701.431 -397.347 646.245 -344.178C591.058 -291.01 496.095 -358.898 435.368 -287.181C374.642 -215.464 484.613 -146.319 428.461 -61.4217C372.308 23.4753 218.074 -48.6836 172.875 -3.02212C127.676 42.6394 183.274 122.941 144.193 173.67C105.111 224.399 56.5093 180.143 -13.2579 262.537C-83.0251 344.932 26.7748 476.713 -51.7433 558.579C-130.261 640.445 -287.641 609.45 -287.641 609.45" stroke="#3A9BE7" stroke-width="2.92308"/>
<path d="M630.607 -480.33C637.013 -444.71 688.598 -369.122 636.821 -321.923C585.043 -274.724 496.629 -331.708 438.906 -263.539C381.184 -195.37 489.679 -120.707 431.155 -38.2124C372.631 44.2821 217.493 -33.2119 174.698 11.4395C131.903 56.091 181.067 138.447 146.125 187.717C111.183 236.987 65.7898 190.371 -3.86606 272.634C-73.522 354.897 44.506 497.086 -40.4273 583.955C-125.36 670.825 -291.114 637.027 -291.114 637.027" stroke="#40AAEA" stroke-width="2.61538"/>
<path d="M631.147 -443.096C638.134 -404.238 675.761 -340.902 627.392 -299.673C579.023 -258.444 497.157 -304.524 442.439 -239.903C387.722 -175.282 494.739 -95.1009 433.844 -15.009C372.949 65.0829 216.906 -17.7462 176.516 25.8952C136.125 69.5367 178.855 153.946 148.052 201.758C117.25 249.569 75.0652 200.594 5.52058 282.725C-64.024 364.856 62.2319 517.453 -29.1165 609.326C-120.465 701.199 -294.592 664.597 -294.592 664.597" stroke="#46BAED" stroke-width="2.30769"/>
</g>
<g style="mix-blend-mode:luminosity" opacity="0.06">
<path d="M596.614 1378.88C596.614 1378.88 414.843 1194.78 509.971 1068.6C605.099 942.425 746.302 1098.92 842.431 978.257C938.56 857.591 819.095 860.649 858.988 746.262C898.881 631.876 1037.72 630.895 1109.02 565.099C1180.31 499.303 1069.07 455.477 1151.97 378.496C1234.87 301.515 1311.23 311.268 1386.3 217.043C1461.36 122.818 1436.94 98.6443 1453.32 64.5433C1469.7 30.4423 1540.64 23.305 1540.64 23.305" stroke="#7209B7" stroke-width="6"/>
<path d="M539.46 820.98C535.444 779.536 516.576 731.237 562.792 689.47C609.009 647.704 679.042 672.849 733.809 604.103C788.576 535.357 693.294 463.379 760.529 376.275C827.763 289.171 972.535 356.569 1012.59 308.322C1052.64 260.075 1024.34 177.805 1053.75 127.359C1083.15 76.913 1116.79 123.363 1190.33 31.0605C1263.86 -61.2417 1146.67 -207.258 1248.75 -318.468C1350.82 -429.679 1524.12 -415.004 1524.12 -415.004" stroke="#4CC9F0" stroke-width="2"/>
<path d="M586.666 1331.55C586.357 1328.36 417.117 1154.7 508.483 1035.02C599.848 915.334 735.576 1061.73 828.524 945.056C921.472 828.384 803.866 825.67 845.862 713.381C887.859 601.093 1027.16 605.373 1096.05 540.927C1164.94 476.48 1060.08 429.698 1138.86 354.758C1217.65 279.817 1290.72 292.394 1365.67 198.317C1440.62 104.239 1409.06 70.6931 1432.03 30.6606C1455 -9.37184 1533.82 -14.8313 1533.82 -14.8313" stroke="#7209B7" stroke-width="5.69231"/>
<path d="M576.724 1284.21C576.106 1277.84 419.397 1114.63 507 1001.43C594.604 888.243 724.857 1024.53 814.623 911.854C904.389 799.176 788.644 790.69 832.743 680.501C876.843 570.311 1016.6 579.851 1083.08 516.754C1149.57 453.658 1051.09 403.918 1125.76 331.019C1200.43 258.12 1270.22 273.519 1345.05 179.59C1419.88 85.6606 1381.18 42.7417 1410.75 -3.22226C1440.31 -49.1863 1527 -52.9678 1527 -52.9678" stroke="#7209B7" stroke-width="5.38462"/>
<path d="M566.788 1236.88C565.861 1227.32 421.683 1074.56 505.523 967.858C589.364 861.159 714.143 987.345 800.727 878.661C887.311 769.976 773.427 755.718 819.629 647.628C865.832 539.537 1006.04 554.336 1070.13 492.59C1134.21 430.843 1042.11 378.146 1112.67 307.288C1183.22 236.43 1249.73 254.652 1324.44 160.871C1399.15 67.0898 1353.31 14.7984 1389.47 -37.0971C1425.63 -88.9926 1520.19 -91.0962 1520.19 -91.0962" stroke="#480CA8" stroke-width="5.07692"/>
<path d="M556.859 1189.56C555.623 1176.81 423.976 1034.49 504.054 934.287C584.133 834.082 703.437 950.163 786.84 845.473C870.242 740.782 758.218 720.752 806.523 614.76C854.829 508.768 995.497 528.827 1057.18 468.431C1118.86 408.034 1033.14 352.38 1099.58 283.563C1166.02 214.747 1229.24 235.791 1303.83 142.158C1378.42 48.5246 1325.45 -13.1393 1368.2 -70.9663C1410.95 -128.793 1513.39 -129.219 1513.39 -129.219" stroke="#173ED4" stroke-width="4.76923"/>
<path d="M546.938 1142.24C545.393 1126.3 426.277 994.434 502.593 900.722C578.909 807.01 692.738 912.987 772.959 812.291C853.18 711.594 743.016 685.792 793.425 581.899C843.834 478.005 984.957 503.324 1044.24 444.278C1103.51 385.231 1024.17 326.62 1086.5 259.844C1148.82 193.069 1208.75 216.936 1283.23 123.451C1357.71 29.965 1297.6 -41.0712 1346.94 -104.83C1396.28 -168.588 1506.59 -167.336 1506.59 -167.336" stroke="#1D4DD7" stroke-width="4.46154"/>
<path d="M537.028 1094.94C535.175 1075.81 428.589 954.385 501.143 867.166C573.696 779.947 682.052 875.82 759.091 779.117C836.13 682.414 727.826 650.84 780.338 549.046C832.85 447.251 974.43 477.83 1031.3 420.133C1088.18 362.436 1015.22 300.868 1073.43 236.133C1131.64 171.399 1188.28 198.089 1262.64 104.752C1337 11.4141 1269.76 -68.9946 1325.69 -138.685C1381.63 -208.375 1499.81 -205.445 1499.81 -205.445" stroke="#235DDA" stroke-width="4.15385"/>
<path d="M527.13 1047.64C524.967 1025.32 430.913 914.344 499.704 833.619C568.495 752.893 671.376 838.662 745.233 745.953C819.09 653.244 712.647 615.898 767.262 516.202C821.878 416.506 963.913 452.345 1018.39 395.998C1072.86 339.651 1006.28 275.126 1060.37 212.432C1114.47 149.739 1167.83 179.252 1242.07 86.0624C1316.31 -7.12723 1241.93 -96.9084 1304.45 -172.53C1366.98 -248.151 1493.03 -243.544 1493.03 -243.544" stroke="#296CDE" stroke-width="3.84615"/>
<path d="M527.507 1008.52C525.036 983.02 443.513 882.489 508.541 808.256C573.57 734.024 670.976 809.689 741.651 720.974C812.327 632.259 707.744 589.141 764.462 491.544C821.181 393.946 963.673 435.044 1015.74 380.048C1067.81 325.051 1007.61 257.568 1057.59 196.916C1107.57 136.264 1157.64 168.6 1231.77 75.5578C1305.89 -17.4839 1224.37 -116.638 1293.49 -198.191C1362.61 -279.744 1496.54 -273.458 1496.54 -273.458" stroke="#2F7CE1" stroke-width="3.53846"/>
<path d="M529.882 971.004C527.102 942.312 458.11 852.227 519.376 784.488C580.642 716.749 672.574 782.31 740.068 697.589C807.561 612.867 704.838 563.977 763.66 468.479C822.482 372.98 965.43 419.338 1015.1 365.692C1064.76 312.045 1010.94 241.604 1056.81 182.994C1102.67 124.383 1149.46 159.541 1223.46 66.6473C1297.47 -26.2465 1208.82 -134.773 1284.53 -222.257C1360.24 -309.742 1502.04 -301.778 1502.04 -301.778" stroke="#358BE4" stroke-width="3.23077"/>
<path d="M532.268 933.489C529.179 901.61 472.717 821.971 530.221 760.725C587.725 699.479 674.182 754.936 738.494 674.209C802.806 593.481 701.943 538.82 762.868 445.42C823.793 352.02 967.197 403.638 1014.46 351.341C1061.72 299.044 1014.28 225.646 1056.03 169.077C1097.78 112.507 1141.28 150.488 1215.17 57.7424C1289.06 -35.0035 1193.27 -152.902 1275.57 -246.318C1357.88 -339.734 1507.55 -330.093 1507.55 -330.093" stroke="#3A9BE7" stroke-width="2.92308"/>
<path d="M534.659 895.982C531.261 860.914 487.331 791.722 541.072 736.969C594.814 682.217 675.796 727.569 736.926 650.836C798.057 574.102 699.054 513.668 762.082 422.367C825.111 331.066 968.971 387.943 1013.83 336.996C1058.69 286.05 1017.63 209.695 1055.26 155.166C1092.9 100.638 1133.11 141.442 1206.88 48.8438C1280.65 -43.7542 1177.73 -171.025 1266.62 -270.373C1355.52 -369.72 1513.06 -358.401 1513.06 -358.401" stroke="#40AAEA" stroke-width="2.61538"/>
<path d="M537.057 858.479C533.35 820.223 501.951 761.478 551.93 713.219C601.909 664.959 677.417 700.208 735.365 627.468C793.314 554.728 696.172 488.522 761.303 399.32C826.435 310.117 970.751 372.255 1013.21 322.658C1055.67 273.061 1020.99 193.749 1054.5 141.262C1088.02 88.7742 1124.95 132.401 1198.6 39.9509C1272.25 -52.4991 1162.2 -189.143 1257.68 -294.422C1353.17 -399.701 1518.59 -386.704 1518.59 -386.704" stroke="#46BAED" stroke-width="2.30769"/>
</g>
</svg>
