<svg width="1440" height="1958" viewBox="0 0 1440 1958" fill="none" xmlns="http://www.w3.org/2000/svg">
<g filter="url(#filter0_f_978_2712)">
<path d="M1117.36 729.297C1134.89 551.998 972.778 542.883 889.529 560.487C879.671 566.238 866.082 606.493 890.59 721.512C921.224 865.285 833.634 842.987 726.459 916.712C619.284 990.438 481.195 1127.46 698.383 1211.51C915.571 1295.56 819.352 1129.44 958.043 1115.44C1096.73 1101.44 1095.44 950.92 1117.36 729.297Z" fill="#4CC9F0"/>
</g>
<g filter="url(#filter1_f_978_2712)">
<path d="M922.39 1098.33C872.936 1157.75 601.386 1078.89 579.71 1083.81L571.866 1123.23C539.504 1119.87 446.419 1097.46 332.97 1034.72C191.159 956.282 305.162 950.686 402.862 872.586C500.562 794.485 420.973 746.903 374.543 602.027C328.112 457.152 549.294 221.814 853.395 326.192C1157.5 430.571 972.867 412.878 990.359 498.318C1007.85 583.757 897.443 568.136 755.124 700.27C612.805 832.404 897.606 810.004 1013.39 864.789C1129.18 919.574 971.844 1038.91 922.39 1098.33Z" fill="#0000C8" fill-opacity="0.68"/>
</g>
<g opacity="0.04">
<path d="M1893.22 1918.95C1893.22 1918.95 1849.66 1563.78 1654.34 1561C1459.02 1558.22 1506.08 1845.55 1315.41 1848.54C1124.74 1851.53 1217.71 1723.28 1075.54 1669.99C933.38 1616.71 827.857 1767.96 709.674 1790.26C591.491 1812.57 632.307 1653.57 494.419 1679.11C356.531 1704.64 308.584 1796.55 159.695 1798.89C10.8054 1801.22 5.50546 1753.97 -40.2561 1743.01C-86.0177 1732.04 -146.44 1803.69 -146.44 1803.69" stroke="#7209B7" stroke-width="6"/>
<path d="M1389.41 1383.36C1351.82 1343.82 1318.68 1282.21 1242.94 1297.42C1167.2 1312.63 1139.1 1410.66 1030.47 1412.36C921.843 1414.07 923.048 1248.68 787.036 1248.48C651.024 1248.27 608.058 1463.98 530.602 1466.95C453.146 1469.92 393.82 1369.17 322.23 1358.61C250.641 1348.04 270.832 1424.28 124.981 1426.56C-20.8694 1428.85 -75.7324 1176.69 -261.615 1194.22C-447.498 1211.74 -563.618 1413.99 -563.618 1413.99" stroke="#4CC9F0" stroke-width="2"/>
<path d="M1854.31 1867.92C1851.42 1864.88 1808.66 1532.29 1622.54 1530.89C1436.42 1529.49 1477.7 1802.27 1293.34 1805.16C1108.98 1808.05 1194.89 1676.94 1053.2 1627.74C911.507 1578.54 810.796 1734.74 695.746 1755.56C580.696 1776.38 613.809 1621.86 481.021 1644.62C348.233 1667.38 305.527 1758.09 156.872 1760.42C8.21599 1762.75 -0.896411 1699.74 -57.4365 1690.96C-113.977 1682.18 -178.683 1763.88 -178.683 1763.88" stroke="#7209B7" stroke-width="5.69231"/>
<path d="M1815.4 1816.9C1809.62 1810.82 1767.66 1500.81 1590.74 1500.79C1413.82 1500.78 1449.31 1759 1271.26 1761.79C1093.22 1764.58 1172.07 1630.61 1030.85 1585.49C889.632 1540.38 793.733 1701.54 681.816 1720.87C569.899 1740.2 595.308 1590.17 467.62 1610.15C339.932 1630.13 302.468 1719.63 154.046 1721.95C5.62402 1724.28 -7.301 1645.51 -74.6197 1638.92C-141.938 1632.34 -210.93 1724.08 -210.93 1724.08" stroke="#7209B7" stroke-width="5.38462"/>
<path d="M1776.5 1765.89C1767.82 1756.77 1726.66 1469.34 1558.94 1470.71C1391.21 1472.08 1420.93 1715.73 1249.19 1718.43C1077.45 1721.12 1149.25 1584.29 1008.5 1543.26C867.758 1502.23 776.671 1668.35 667.886 1686.19C559.102 1704.03 576.808 1558.48 454.22 1575.68C331.632 1592.89 299.409 1681.18 151.221 1683.5C3.03283 1685.83 -13.7048 1591.29 -91.802 1586.9C-169.899 1582.51 -243.175 1684.3 -243.175 1684.3" stroke="#480CA8" stroke-width="5.07692"/>
<path d="M1737.59 1714.9C1726.02 1702.73 1685.67 1437.88 1527.14 1440.64C1368.61 1443.4 1392.55 1672.49 1227.12 1675.08C1061.7 1677.67 1126.43 1537.99 986.157 1501.04C845.887 1464.09 759.611 1635.17 653.96 1651.53C548.308 1667.88 558.312 1526.81 440.823 1541.24C323.335 1555.67 296.353 1642.75 148.399 1645.07C0.444591 1647.39 -20.1057 1537.09 -108.981 1534.89C-197.857 1532.69 -275.417 1644.53 -275.417 1644.53" stroke="#173ED4" stroke-width="4.76923"/>
<path d="M1698.68 1663.92C1684.22 1648.71 1644.67 1406.44 1495.34 1410.58C1346.01 1414.72 1364.17 1629.25 1205.05 1631.75C1045.93 1634.24 1103.61 1491.7 963.811 1458.84C824.014 1425.97 742.551 1602.01 640.032 1616.87C537.513 1631.74 539.813 1495.15 427.425 1506.8C315.036 1518.45 293.296 1604.33 145.576 1606.65C-2.14498 1608.97 -26.5077 1482.91 -126.162 1482.9C-225.816 1482.89 -307.661 1604.77 -307.661 1604.77" stroke="#1D4DD7" stroke-width="4.46154"/>
<path d="M1659.77 1612.95C1642.42 1594.71 1603.67 1375.02 1463.54 1380.54C1323.41 1386.07 1335.78 1586.03 1182.98 1588.43C1030.17 1590.82 1080.79 1445.43 941.465 1416.65C802.141 1387.86 725.49 1568.86 626.104 1582.24C526.718 1595.62 521.315 1463.51 414.026 1472.38C306.738 1481.26 290.239 1565.93 142.752 1568.24C-4.73472 1570.56 -32.9099 1428.74 -143.343 1430.92C-253.776 1433.1 -339.905 1565.03 -339.905 1565.03" stroke="#235DDA" stroke-width="4.15385"/>
<path d="M1620.87 1562.01C1600.62 1540.73 1562.67 1343.62 1431.74 1350.53C1300.81 1357.44 1307.4 1542.84 1160.91 1545.13C1014.41 1547.43 1057.97 1399.18 919.118 1374.48C780.267 1349.78 708.429 1535.73 612.176 1547.63C515.923 1559.52 502.816 1431.89 400.627 1437.99C298.438 1444.09 287.181 1527.55 139.928 1529.86C-7.32517 1532.17 -39.313 1374.59 -160.524 1378.96C-281.736 1383.34 -372.149 1525.31 -372.149 1525.31" stroke="#296CDE" stroke-width="3.84615"/>
<path d="M1582.24 1529.27C1559.11 1504.94 1521.96 1330.41 1400.23 1338.71C1278.49 1347 1279.3 1517.84 1139.12 1520.03C998.938 1522.23 1035.44 1371.13 897.058 1350.51C758.68 1329.89 691.654 1520.8 598.533 1531.21C505.413 1541.61 484.603 1418.47 387.514 1421.79C290.426 1425.11 284.41 1507.37 137.39 1509.67C-9.62909 1511.98 -45.4294 1338.63 -177.419 1345.2C-309.409 1351.76 -404.108 1503.78 -404.108 1503.78" stroke="#2F7CE1" stroke-width="3.53846"/>
<path d="M1543.68 1500.06C1517.65 1472.69 1481.31 1320.75 1368.77 1330.42C1256.24 1340.1 1251.26 1496.37 1117.39 1498.47C983.519 1500.57 1012.96 1346.61 875.054 1330.07C737.15 1313.54 674.935 1509.41 584.948 1518.33C494.961 1527.25 466.447 1408.58 374.458 1409.12C282.469 1409.67 281.695 1490.72 134.909 1493.03C-11.8766 1495.33 -51.4894 1306.22 -194.258 1314.98C-337.026 1323.73 -436.009 1485.8 -436.009 1485.8" stroke="#358BE4" stroke-width="3.23077"/>
<path d="M1505.11 1470.87C1476.19 1440.45 1440.65 1311.1 1337.31 1322.16C1233.97 1333.21 1223.22 1474.93 1095.66 1476.93C968.099 1478.93 990.48 1322.11 853.049 1309.66C715.617 1297.21 658.215 1498.04 571.36 1505.47C484.506 1512.9 448.289 1398.71 361.4 1396.48C274.511 1394.25 278.978 1474.09 132.426 1476.39C-14.1256 1478.69 -57.5511 1273.82 -211.098 1284.77C-364.645 1295.72 -467.912 1467.83 -467.912 1467.83" stroke="#3A9BE7" stroke-width="2.92308"/>
<path d="M1466.54 1441.69C1434.73 1408.23 1399.99 1301.46 1305.85 1313.9C1211.71 1326.34 1195.18 1453.49 1073.93 1455.4C952.68 1457.3 968.002 1297.62 831.044 1289.25C694.085 1280.88 641.495 1486.68 557.773 1492.62C474.052 1498.56 430.132 1388.86 348.342 1383.85C266.553 1378.83 276.262 1457.48 129.943 1459.77C-16.3747 1462.07 -63.6126 1241.44 -227.938 1254.58C-392.264 1267.72 -499.815 1449.87 -499.815 1449.87" stroke="#40AAEA" stroke-width="2.61538"/>
<path d="M1427.98 1412.52C1393.27 1376.02 1359.34 1291.83 1274.4 1305.66C1189.46 1319.48 1167.14 1432.07 1052.2 1433.87C937.263 1435.68 945.527 1273.15 809.041 1268.86C672.556 1264.57 624.778 1475.32 544.189 1479.78C463.601 1484.23 411.977 1379.01 335.288 1371.22C258.599 1363.44 273.549 1440.87 127.464 1443.16C-18.6204 1445.45 -69.671 1209.06 -244.775 1224.39C-419.879 1239.72 -531.715 1431.93 -531.715 1431.93" stroke="#46BAED" stroke-width="2.30769"/>
</g>
<defs>
<filter id="filter0_f_978_2712" x="283.472" y="254.241" width="1135.2" height="1280.9" filterUnits="userSpaceOnUse" color-interpolation-filters="sRGB">
<feFlood flood-opacity="0" result="BackgroundImageFix"/>
<feBlend mode="normal" in="SourceGraphic" in2="BackgroundImageFix" result="shape"/>
<feGaussianBlur stdDeviation="150" result="effect1_foregroundBlur_978_2712"/>
</filter>
<filter id="filter1_f_978_2712" x="-33.6582" y="0.293945" width="1388.67" height="1422.94" filterUnits="userSpaceOnUse" color-interpolation-filters="sRGB">
<feFlood flood-opacity="0" result="BackgroundImageFix"/>
<feBlend mode="normal" in="SourceGraphic" in2="BackgroundImageFix" result="shape"/>
<feGaussianBlur stdDeviation="150" result="effect1_foregroundBlur_978_2712"/>
</filter>
</defs>
</svg>
