<svg width="49" height="50" viewBox="0 0 49 50" fill="none" xmlns="http://www.w3.org/2000/svg">
<path d="M33.9579 17.4323C33.7496 16.8723 33.4307 16.3639 33.0217 15.9398C32.6126 15.5156 32.1225 15.185 31.5829 14.9694C30.8399 14.6838 30.0552 14.5328 29.2629 14.5231C27.9454 14.4608 27.5504 14.4452 24.2129 14.4452C20.8754 14.4452 20.4804 14.4608 19.1629 14.5231C18.3698 14.5325 17.5842 14.6835 16.8404 14.9694C16.301 15.1856 15.8112 15.5167 15.4026 15.9413C14.994 16.3659 14.6756 16.8747 14.4679 17.4348C14.1927 18.2061 14.0473 19.0207 14.0379 19.8431C13.9779 21.2108 13.9629 21.6208 13.9629 25.0854C13.9629 28.5499 13.9779 28.9599 14.0379 30.3276C14.047 31.1509 14.1924 31.9664 14.4679 32.7385C14.6762 33.2984 14.9951 33.8068 15.4041 34.231C15.8132 34.6552 16.3033 34.9857 16.8429 35.2013C17.5859 35.4869 18.3706 35.6379 19.1629 35.6476C20.4804 35.7099 20.8754 35.7229 24.2129 35.7229C27.5504 35.7229 27.9454 35.7099 29.2629 35.645C30.0558 35.6365 30.8415 35.4863 31.5854 35.2013C32.1248 34.9851 32.6145 34.654 33.0232 34.2294C33.4318 33.8048 33.7502 33.296 33.9579 32.7359C34.2331 31.9646 34.3785 31.15 34.3879 30.3276C34.4479 28.9599 34.4604 28.5499 34.4604 25.0854C34.4604 21.6208 34.4479 21.2108 34.3854 19.8431C34.3771 19.02 34.2325 18.2045 33.9579 17.4323ZM24.2129 31.7497C22.9431 31.7497 21.7019 31.3589 20.6461 30.6266C19.5904 29.8943 18.7675 28.8535 18.2816 27.6357C17.7957 26.418 17.6685 25.078 17.9163 23.7852C18.164 22.4925 18.7754 21.305 19.6733 20.3729C20.5711 19.4409 21.7151 18.8062 22.9604 18.5491C24.2058 18.2919 25.4966 18.4239 26.6697 18.9283C27.8428 19.4327 28.8455 20.2869 29.5509 21.3828C30.2564 22.4788 30.6329 23.7673 30.6329 25.0854C30.6329 26.8529 29.9565 28.548 28.7525 29.7978C27.5485 31.0476 25.9156 31.7497 24.2129 31.7497ZM30.8854 19.716C30.5887 19.716 30.2987 19.6247 30.052 19.4536C29.8054 19.2825 29.6131 19.0393 29.4996 18.7548C29.386 18.4702 29.3563 18.1572 29.4142 17.8551C29.4721 17.5531 29.615 17.2756 29.8247 17.0579C30.0345 16.8401 30.3018 16.6918 30.5928 16.6317C30.8837 16.5716 31.1853 16.6025 31.4594 16.7203C31.7335 16.8382 31.9678 17.0378 32.1326 17.2938C32.2974 17.5499 32.3854 17.8509 32.3854 18.1589C32.3854 18.5719 32.2274 18.9679 31.9461 19.2599C31.6648 19.5519 31.2832 19.716 30.8854 19.716ZM28.3804 25.0854C28.3804 25.941 28.136 26.7774 27.678 27.4888C27.2201 28.2003 26.5692 28.7547 25.8077 29.0822C25.0462 29.4096 24.2083 29.4953 23.3999 29.3284C22.5914 29.1614 21.8489 28.7494 21.266 28.1444C20.6832 27.5394 20.2863 26.7685 20.1255 25.9293C19.9647 25.0902 20.0472 24.2203 20.3626 23.4298C20.6781 22.6393 21.2122 21.9637 21.8976 21.4883C22.5829 21.013 23.3886 20.7592 24.2129 20.7592C25.3182 20.7592 26.3782 21.215 27.1598 22.0263C27.9413 22.8376 28.3804 23.938 28.3804 25.0854ZM24.2129 0.171875C19.4661 0.171875 14.826 1.63303 10.8792 4.37055C6.93243 7.10808 3.8563 10.999 2.03979 15.5514C0.223289 20.1037 -0.25199 25.113 0.674055 29.9457C1.6001 34.7785 3.88588 39.2176 7.24234 42.7019C10.5988 46.1861 14.8752 48.5589 19.5307 49.5201C24.1863 50.4814 29.0119 49.9881 33.3973 48.1024C37.7827 46.2168 41.531 43.0236 44.1682 38.9266C46.8053 34.8296 48.2129 30.0128 48.2129 25.0854C48.2129 18.4779 45.6843 12.1411 41.1835 7.46887C36.6826 2.79668 30.5781 0.171875 24.2129 0.171875ZM36.6379 30.434C36.6167 31.5108 36.4198 32.5761 36.0554 33.5845C35.7343 34.4463 35.2434 35.2289 34.614 35.8823C33.9846 36.5357 33.2306 37.0453 32.4004 37.3786C31.4297 37.7566 30.4044 37.961 29.3679 37.9833C28.0329 38.0456 27.6079 38.0611 24.2129 38.0611C20.8179 38.0611 20.3929 38.0456 19.0579 37.9833C18.0214 37.961 16.9961 37.7566 16.0254 37.3786C15.1952 37.0453 14.4412 36.5357 13.8118 35.8823C13.1824 35.2289 12.6915 34.4463 12.3704 33.5845C12.0063 32.5769 11.8093 31.5125 11.7879 30.4366C11.7279 29.0508 11.7129 28.6096 11.7129 25.0854C11.7129 21.5611 11.7279 21.12 11.7879 19.7342C11.8085 18.6584 12.0047 17.594 12.3679 16.5862C12.6889 15.7237 13.1802 14.9404 13.81 14.2865C14.4399 13.6327 15.1945 13.1228 16.0254 12.7895C16.9962 12.4124 18.0216 12.2089 19.0579 12.1874C20.3929 12.1252 20.8179 12.1096 24.2129 12.1096C27.6079 12.1096 28.0329 12.1252 29.3679 12.1874C30.4042 12.2089 31.4296 12.4124 32.4004 12.7895C33.2308 13.1231 33.9849 13.6331 34.6144 14.287C35.2438 14.9408 35.7346 15.724 36.0554 16.5862C36.4195 17.5938 36.6164 18.6582 36.6379 19.7342C36.6979 21.12 36.7129 21.5611 36.7129 25.0854C36.7129 28.6096 36.6979 29.0482 36.6379 30.434Z" fill="white"/>
</svg>
