<svg width="49" height="50" viewBox="0 0 49 50" fill="none" xmlns="http://www.w3.org/2000/svg">
<path d="M24.2842 0.171875C11.0306 0.171875 0.28418 11.3273 0.28418 25.0854C0.28418 38.8434 11.0306 49.9989 24.2842 49.9989C37.5378 49.9989 48.2842 38.8434 48.2842 25.0854C48.2842 11.3273 37.5378 0.171875 24.2842 0.171875ZM35.8181 18.9515C35.8342 19.2129 35.8342 19.4854 35.8342 19.7523C35.8342 27.9159 29.8449 37.3197 18.9003 37.3197C15.5253 37.3197 12.3967 36.302 9.76097 34.5503C10.2431 34.6059 10.7038 34.6281 11.1967 34.6281C13.9824 34.6281 16.5431 33.6494 18.5842 31.9922C15.9699 31.9366 13.7735 30.157 13.0235 27.7102C13.9395 27.8492 14.7645 27.8492 15.7074 27.599C14.3613 27.3151 13.1514 26.5562 12.2832 25.4512C11.415 24.3462 10.9421 22.9633 10.9449 21.5374V21.4596C11.7324 21.9211 12.6592 22.2047 13.6288 22.2437C12.8137 21.6798 12.1452 20.9158 11.6826 20.0194C11.2201 19.1231 10.9777 18.1221 10.977 17.1053C10.977 15.9541 11.2663 14.9031 11.786 13.9911C13.2801 15.9004 15.1445 17.462 17.2581 18.5743C19.3717 19.6866 21.6871 20.3249 24.0538 20.4475C23.2128 16.2489 26.2342 12.8511 29.8663 12.8511C31.5806 12.8511 33.1235 13.5962 34.211 14.7974C35.5556 14.5361 36.8413 14.0133 37.9878 13.3126C37.5431 14.7418 36.611 15.9486 35.3735 16.7104C36.5735 16.577 37.7306 16.2322 38.802 15.7484C37.9931 16.9829 36.9806 18.0784 35.8181 18.9515Z" fill="white"/>
</svg>
