<svg width="26" height="21" viewBox="0 0 26 21" fill="none" xmlns="http://www.w3.org/2000/svg">
<path d="M24.8534 7.06159C25.0464 6.90236 25.3333 7.05131 25.3333 7.30299V17.8066C25.3333 19.1677 24.2695 20.272 22.9583 20.272H2.375C1.0638 20.272 0 19.1677 0 17.8066V7.30813C0 7.05132 0.282031 6.9075 0.479948 7.06672C1.58828 7.96043 3.05781 9.09554 8.10469 12.9015C9.1487 13.6925 10.9102 15.3566 12.6667 15.3464C14.4331 15.3618 16.2292 13.6617 17.2336 12.9015C22.2805 9.09554 23.7451 7.95529 24.8534 7.06159ZM12.6667 13.6976C13.8146 13.7182 15.4672 12.1978 16.2984 11.5712C22.8643 6.62501 23.3641 6.19356 24.8781 4.96086C25.1651 4.72973 25.3333 4.37019 25.3333 3.99011V3.01423C25.3333 1.65312 24.2695 0.548828 22.9583 0.548828H2.375C1.0638 0.548828 0 1.65312 0 3.01423V3.99011C0 4.37019 0.168229 4.7246 0.455208 4.96086C1.96927 6.18843 2.46901 6.62501 9.0349 11.5712C9.86615 12.1978 11.5188 13.7182 12.6667 13.6976Z" fill="white"/>
</svg>
