<svg width="49" height="50" viewBox="0 0 49 50" fill="none" xmlns="http://www.w3.org/2000/svg">
<path d="M28.1501 24.652L22.5351 21.9323C22.0451 21.6961 21.6426 21.9608 21.6426 22.5239V27.6468C21.6426 28.2099 22.0451 28.4746 22.5351 28.2385L28.1476 25.5188C28.6401 25.28 28.6401 24.8907 28.1501 24.652ZM24.1426 0.171875C10.8876 0.171875 0.142578 11.3259 0.142578 25.0854C0.142578 38.8449 10.8876 49.9989 24.1426 49.9989C37.3976 49.9989 48.1426 38.8449 48.1426 25.0854C48.1426 11.3259 37.3976 0.171875 24.1426 0.171875ZM24.1426 35.2065C11.8576 35.2065 11.6426 34.0568 11.6426 25.0854C11.6426 16.1139 11.8576 14.9643 24.1426 14.9643C36.4276 14.9643 36.6426 16.1139 36.6426 25.0854C36.6426 34.0568 36.4276 35.2065 24.1426 35.2065Z" fill="white"/>
</svg>
