<svg width="49" height="50" viewBox="0 0 49 50" fill="none" xmlns="http://www.w3.org/2000/svg">
<path d="M48.0693 25.0864C48.0693 11.3253 37.3248 0.171875 24.0703 0.171875C10.8157 0.171875 0.0712891 11.3253 0.0712891 25.0864C0.0712891 37.5188 8.84765 47.8251 20.3201 49.6937V32.2867H14.2279V25.0843H20.3201V19.5969C20.3201 13.3517 23.9043 9.90308 29.3845 9.90308C32.0106 9.90308 34.7567 10.3889 34.7567 10.3889V16.52H31.7326C28.7525 16.52 27.8224 18.4405 27.8224 20.4108V25.0864H34.4787L33.4147 32.2888H27.8224V49.6957C39.2949 47.8272 48.0713 37.5208 48.0713 25.0864H48.0693Z" fill="white"/>
</svg>
