<svg width="25" height="27" viewBox="0 0 25 27" fill="none" xmlns="http://www.w3.org/2000/svg">
<path d="M24.287 19.3246L18.8182 16.8916C18.5846 16.7883 18.3249 16.7665 18.0784 16.8296C17.8318 16.8926 17.6116 17.0372 17.451 17.2414L15.0291 20.313C11.2281 18.4527 8.16919 15.2773 6.37707 11.3317L9.3361 8.8176C9.53321 8.65118 9.67273 8.42263 9.73352 8.16654C9.79431 7.91046 9.77308 7.64078 9.67302 7.39835L7.32923 1.72134C7.21942 1.46 7.02521 1.24663 6.78008 1.11801C6.53495 0.989392 6.25427 0.953594 5.98643 1.01679L0.908219 2.23329C0.649996 2.29519 0.419609 2.44611 0.25466 2.66144C0.0897112 2.87676 -5.9484e-05 3.14376 2.95718e-08 3.41887C2.95718e-08 16.4202 10.1515 26.9379 22.6566 26.9379C22.9218 26.9381 23.1791 26.8449 23.3866 26.6737C23.5941 26.5025 23.7396 26.2632 23.7992 25.9951L24.9711 20.7236C25.0316 20.4442 24.9964 20.1517 24.8716 19.8963C24.7467 19.641 24.54 19.4388 24.287 19.3246Z" fill="#FAFAFA"/>
</svg>
