<svg width="48" height="50" viewBox="0 0 48 50" fill="none" xmlns="http://www.w3.org/2000/svg">
<path d="M23.9713 0.171875C27.2975 0.171875 30.4134 0.82671 33.319 2.13638C36.2246 3.44605 38.767 5.22204 40.9462 7.46436C43.1254 9.70667 44.8459 12.3359 46.1075 15.3521C47.3692 18.3683 48 21.6028 48 25.0556C48 28.5084 47.3692 31.7429 46.1075 34.7591C44.8459 37.7753 43.1254 40.4145 40.9462 42.6766C38.767 44.9388 36.2246 46.7247 33.319 48.0344C30.4134 49.344 27.2975 49.9989 23.9713 49.9989C20.6452 49.9989 17.5293 49.344 14.6237 48.0344C11.718 46.7247 9.18519 44.9388 7.02509 42.6766C4.86499 40.4145 3.15412 37.7753 1.89247 34.7591C0.630824 31.7429 0 28.5084 0 25.0556C0 21.6028 0.630824 18.3683 1.89247 15.3521C3.15412 12.3359 4.86499 9.70667 7.02509 7.46436C9.18519 5.22204 11.718 3.44605 14.6237 2.13638C17.5293 0.82671 20.6452 0.171875 23.9713 0.171875ZM16.5161 18.8644H10.4946V39.1048H16.5161V18.8644ZM13.4767 17.2571C14.3178 17.2571 15.0346 16.9595 15.6272 16.3642C16.2198 15.7689 16.5161 15.0346 16.5161 14.1615C16.5161 13.2884 16.2198 12.5542 15.6272 11.9589C15.0346 11.3636 14.3178 11.0659 13.4767 11.0659C12.6356 11.0659 11.9283 11.3636 11.3548 11.9589C10.7814 12.5542 10.4946 13.2884 10.4946 14.1615C10.4946 15.0346 10.7814 15.7689 11.3548 16.3642C11.9283 16.9595 12.6356 17.2571 13.4767 17.2571ZM37.5054 27.3773C37.5054 25.9486 37.1231 24.5496 36.3584 23.1804C35.5938 21.8112 34.5998 20.7694 33.3763 20.055C32.2676 19.4201 30.9773 19.0827 29.5054 19.043C28.0335 19.0033 26.6858 19.2613 25.4624 19.8169V18.8644H19.4982V39.1048H25.4624V26.7225L27.9857 25.4723C28.2915 25.3136 28.7025 25.2342 29.2186 25.2342C29.7348 25.2342 30.1458 25.3334 30.4516 25.5318C30.681 25.6509 30.9104 25.9089 31.1398 26.3057C31.3692 26.7026 31.4839 27.0598 31.4839 27.3773V39.1048H37.5054V27.3773Z" fill="white"/>
</svg>
