<svg width="131" height="19" viewBox="0 0 131 19" fill="none" xmlns="http://www.w3.org/2000/svg">
<path d="M74.0479 5.72603C66.2397 5.72603 61.0342 8.19863 59.6027 12.4932C59.0822 14.0548 59.3425 15.3562 60.1233 16.3973C61.5548 18.089 64.6781 19 69.363 19C77.0411 19 82.3767 16.5274 83.6781 12.1027C84.1986 10.5411 84.0685 9.23973 83.1575 8.32877C81.8562 6.63699 78.6027 5.72603 74.0479 5.72603ZM74.8288 12.4932C73.7877 15.4863 72.6164 16.6575 70.5342 16.6575C69.6233 16.6575 68.8425 16.3973 68.452 15.8767C67.9315 15.226 67.9315 14.0548 68.5822 12.1027C69.4931 9.23973 70.6644 8.06849 72.8767 8.06849C73.7877 8.06849 74.4384 8.32877 74.8288 8.84931C75.4794 9.5 75.3493 10.6712 74.8288 12.4932ZM129.356 8.32877C127.925 6.63699 124.801 5.72603 120.116 5.72603C112.438 5.72603 107.103 8.19863 105.801 12.4932C105.281 14.0548 105.411 15.3562 106.322 16.3973C107.623 18.089 110.877 19 115.432 19C123.24 19 128.445 16.5274 129.877 12.1027C130.397 10.5411 130.137 9.23973 129.356 8.32877ZM120.897 12.4932C119.986 15.4863 118.815 16.6575 116.603 16.6575C115.692 16.6575 115.041 16.3973 114.651 15.8767C114 15.226 114 14.0548 114.651 12.1027C115.562 9.23973 116.863 8.06849 118.945 8.06849C119.856 8.06849 120.507 8.32877 121.027 8.84931C121.548 9.5 121.548 10.6712 120.897 12.4932ZM5.9863 0C5.85616 0.390411 0.130137 18.089 0 18.6096H8.4589C8.58904 18.2192 14.1849 0.650685 14.4452 0H5.9863ZM100.336 6.11644C100.205 6.37671 93.5685 14.8356 93.5685 14.8356C93.5685 14.8356 92.5274 6.50685 92.5274 6.11644H84.7192C84.7192 6.63699 86.2808 18.2192 86.2808 18.6096H99.0342C99.1644 18.3493 108.144 6.76712 108.534 6.11644H100.336ZM22.9041 16.5274C21.4726 16.5274 20.6918 16.3973 20.0411 15.8767C19.3904 15.4863 19.6507 14.8356 19.6507 14.8356C19.6507 14.8356 34.4863 11.7123 34.7466 11.5822C34.8767 11.3219 35.0068 10.8014 35.0068 10.2808C35.0068 9.36986 34.7466 8.58904 34.226 7.93836C33.0548 6.50685 30.3219 5.72603 26.1575 5.72603C18.6096 5.72603 13.5342 8.19863 12.1027 12.4932C11.5822 14.1849 11.7123 15.6164 12.4932 16.6575C14.1849 18.7397 18.3493 19 20.5616 19C26.6781 19 29.6712 17.9589 30.3219 17.8288C30.3219 17.6986 31.6233 14.9658 31.7534 14.3151C30.5822 14.8356 26.1575 16.7877 22.9041 16.5274ZM20.8219 10.2808C21.3425 8.71918 22.9041 7.67808 24.9863 7.67808C26.4178 7.67808 27.1986 8.19863 27.4589 8.58904C27.7192 8.97945 27.9795 9.5 27.8493 10.2808L19.911 13.9247L20.8219 10.2808ZM58.9521 7.67808C57.911 6.37671 54.5274 5.72603 48.9315 5.72603C44.8973 5.72603 40.9931 6.24658 38 6.76712C38 6.76712 34.0959 18.3493 33.9658 18.6096H42.5548C42.5548 18.4795 46.0685 8.06849 46.0685 8.06849C49.0616 7.93836 49.9726 8.19863 50.363 8.71918C50.6233 8.97945 50.7534 9.23973 50.6233 9.63014L47.6301 18.6096H56.089L59.3425 8.97945C59.4726 8.4589 59.2123 8.06849 58.9521 7.67808Z" fill="black"/>
</svg>
