<svg width="44" height="44" viewBox="0 0 44 44" fill="none" xmlns="http://www.w3.org/2000/svg">
<path fill-rule="evenodd" clip-rule="evenodd" d="M28.9531 28.1107C29.2904 28.1107 29.6546 27.8506 29.7636 27.5331L33.7896 15.8551C33.8994 15.5378 33.7148 15.2772 33.3777 15.2772H31.5425C31.2063 15.2772 30.8414 15.5378 30.7316 15.8551L26.6876 27.5331C26.5781 27.8506 26.7629 28.1107 27.1002 28.1107H28.9531ZM43.9998 21.9996C43.9998 34.149 34.1485 43.9993 21.9996 43.9993C21.6643 43.9993 21.3384 43.9633 21.0062 43.9494L25.4421 31.133C25.5531 30.8152 25.9166 30.5554 26.2539 30.5554H29.3334C34.1147 30.5554 34.1585 28.9702 34.6615 27.514C35.839 24.0979 37.8689 18.2125 38.2637 17.0604C38.8256 15.4173 39.0114 12.8333 34.8331 12.8333H27.4996C27.1635 12.8333 26.7988 13.0934 26.6876 13.4111L16.362 43.2425C6.94878 40.7492 0 32.1961 0 21.9996C0 12.272 6.32106 4.03429 15.0748 1.12835L5.08906 29.977C4.97784 30.2951 5.16337 30.5554 5.49997 30.5554H9.16588C9.50322 30.5554 9.86744 30.2951 9.97817 29.977L14.8668 15.8551C14.9765 15.5378 15.3403 15.2772 15.6766 15.2772H17.4892C17.8258 15.2772 18.0106 15.5378 17.9008 15.8551L13.032 29.977C12.9232 30.2951 13.108 30.5554 13.4441 30.5554H17.1113C17.4474 30.5554 17.8118 30.2951 17.9213 29.977C17.9213 29.977 21.3377 20.072 22.3692 17.077C23.402 14.0826 22.5726 12.8333 18.9678 12.8333H16.5234C16.1873 12.8333 16.0027 12.5729 16.1132 12.2559L20.3245 0.0850662C20.8791 0.043022 21.4338 0 21.9996 0C34.1485 0 43.9998 9.85033 43.9998 21.9996Z" fill="#0096D6"/>
</svg>
