<svg width="45" height="39" viewBox="0 0 45 39" fill="none" xmlns="http://www.w3.org/2000/svg">
<path fill-rule="evenodd" clip-rule="evenodd" d="M0 19.4012C0 30.0675 0.0721918 38.8027 0.162432 38.8027C0.288767 38.8027 16.4236 0.450817 16.4236 0.125954C16.4236 0.0537605 12.7238 -0.00038147 8.21182 -0.00038147H0V19.4012Z" fill="#ED1C24"/>
<path fill-rule="evenodd" clip-rule="evenodd" d="M27.7939 0.107906C27.7939 0.162052 29.9958 5.4501 32.6849 11.8752C35.3741 18.3002 37.594 23.6244 37.612 23.7327C37.6481 23.8229 37.8647 24.3644 38.0993 24.9058C38.352 25.4472 39.7597 28.8042 41.2397 32.3416C42.7196 35.897 44.001 38.8027 44.0732 38.8027C44.1454 38.8027 44.2176 30.0675 44.2176 19.4012V-0.00038147H36.0058C31.4938 -0.00038147 27.7939 0.0537643 27.7939 0.107906Z" fill="#ED1C24"/>
<path fill-rule="evenodd" clip-rule="evenodd" d="M20.8822 17.0017C16.8755 26.4047 14.9805 30.8986 14.9805 31.043C14.9805 31.1513 16.5506 31.2415 18.7886 31.2596L22.5967 31.3137L24.0947 35.1038L25.5746 38.8939L29.0398 38.948C31.35 38.9841 32.487 38.93 32.487 38.8036C32.487 38.569 22.3801 14.5833 22.1997 14.3847C22.1275 14.2945 21.5319 15.4857 20.8822 17.0017Z" fill="#ED1C24"/>
</svg>
