<svg width="119" height="19" viewBox="0 0 119 19" fill="none" xmlns="http://www.w3.org/2000/svg">
<path d="M25.6238 0C20.3495 0 17.8089 0.9261 17.4523 5.68537C17.3732 6.80613 17.3368 7.92949 17.3434 9.05302C17.3434 10.1326 17.3632 11.2866 17.4474 12.4207C17.8089 17.175 20.3495 18.106 25.6188 18.106C30.8932 18.106 33.4437 17.175 33.8052 12.4207C33.8943 11.2866 33.9141 10.1326 33.9141 9.05302C33.9141 7.97834 33.8894 6.81948 33.8052 5.68537C33.4437 0.931053 30.8932 0 25.6238 0ZM44.3934 0C42.363 0 40.3325 0.198098 39.5153 0.599244C37.9206 1.37182 36.8163 2.48116 36.8163 5.6507C36.8163 7.50786 37.3115 8.88959 38.2673 9.59283C39.6589 10.6328 41.006 10.7319 44.755 10.93C46.2655 11.0092 47.0826 11.3163 47.0826 12.6138C47.0826 14.258 45.6266 14.258 44.2894 14.258C42.9028 14.258 42.4769 14.1342 42.0113 13.7826C41.5953 13.4706 41.4913 12.9109 41.4864 12.0591H36.7816C36.7816 14.471 36.8311 16.4371 39.1092 17.4275C41.1397 18.319 47.3798 18.319 49.2518 17.4969C50.8762 16.7788 52.04 15.8279 52.04 12.5742C52.04 10.3208 51.5893 8.93416 49.8609 7.91396C48.6327 7.18596 45.1809 7.07205 43.4327 6.9631C42.155 6.88386 41.6696 6.41833 41.6696 5.28918C41.6696 3.81831 43.0811 3.76384 44.2944 3.76384C45.2948 3.76384 45.9782 3.85298 46.4685 4.28384C46.6567 4.47698 46.8944 4.77413 46.9043 5.80423H51.5943C51.5943 3.78365 51.5249 1.60458 49.3409 0.599244C48.4742 0.20305 46.4338 0 44.3984 0H44.3934ZM55.3185 0.307051V17.799H60.2511V11.0538H65.9761V17.799H70.9087V0.307051H65.9761V6.69567H60.2511V0.307051H55.3185ZM75.242 0.307051V17.799H80.2044V0.307051H75.242ZM84.6071 0.307051V17.799H93.9523C98.2559 17.799 99.707 15.9369 99.707 13.0843C99.707 11.0984 99.2514 9.34521 96.5226 8.65682C98.7214 8.09225 99.3652 6.77986 99.3652 4.88308C99.3652 1.04001 96.9534 0.307051 93.5164 0.307051H84.6071ZM106.264 0.307051L100.975 17.799H106.11L107.037 14.5552H112.781L113.722 17.799H118.858L113.559 0.307051H106.264ZM0 0.316955V4.68003H5.2248V17.8039H10.4496V4.68003H15.6744V0.32191H0V0.316955ZM25.6238 4.0907C27.6939 4.0907 28.7587 4.4027 28.8924 7.09681C28.9122 7.51776 28.9419 8.09225 28.9419 9.05302C28.9419 10.0187 28.9122 10.5883 28.8924 11.0092C28.7587 13.7033 27.6939 14.0153 25.6238 14.0153C23.5537 14.0153 22.4889 13.7033 22.3552 11.0092C22.3252 10.3576 22.312 9.70532 22.3156 9.05302C22.3156 8.09225 22.3304 7.51776 22.3552 7.09681C22.4889 4.4027 23.5537 4.0907 25.6238 4.0907ZM89.5397 4.31356H92.9568C93.8483 4.31356 94.4079 4.73451 94.4079 5.75471C94.4079 6.62633 93.8532 7.16615 92.9568 7.16615H89.5397V4.31356ZM109.899 4.63051H109.929L111.682 10.6725H108.151L109.899 4.63051ZM89.5446 10.6081H92.9568C94.3386 10.6081 94.6258 11.2222 94.6258 12.2077C94.6258 13.1932 94.081 13.7925 92.9568 13.7925H89.5397L89.5446 10.6081Z" fill="black"/>
</svg>
