<svg width="29" height="34" viewBox="0 0 29 34" fill="none" xmlns="http://www.w3.org/2000/svg">
<path d="M23.8878 17.9671C23.8726 15.1813 25.1327 13.0787 27.6832 11.5302C26.2561 9.48833 24.1004 8.36491 21.2539 8.14478C18.5592 7.93225 15.614 9.71605 14.5361 9.71605C13.3975 9.71605 10.7863 8.22069 8.73686 8.22069C4.50127 8.28901 0 11.5985 0 18.3315C0 20.3202 0.364352 22.3748 1.09306 24.4951C2.06466 27.2809 5.57155 34.1125 9.23025 33.9986C11.1431 33.953 12.4942 32.6399 14.984 32.6399C17.3978 32.6399 18.6503 33.9986 20.7832 33.9986C24.4723 33.9455 27.6452 27.7363 28.5713 24.9429C23.6222 22.6126 23.8878 18.1113 23.8878 17.9671ZM19.5915 5.50323C21.6638 3.04386 21.474 0.804611 21.4133 0C19.5839 0.106269 17.4661 1.24487 16.2592 2.64914C14.9308 4.15209 14.149 6.01181 14.316 8.10683C16.2972 8.25865 18.1037 7.2415 19.5915 5.50323Z" fill="black"/>
</svg>
