<svg width="37" height="37" viewBox="0 0 37 37" fill="none" xmlns="http://www.w3.org/2000/svg">
<path d="M18.5 0C13.5935 0 8.88795 1.9491 5.41852 5.41852C1.9491 8.88795 0 13.5935 0 18.5C0 23.4065 1.9491 28.1121 5.41852 31.5815C8.88795 35.0509 13.5935 37 18.5 37C23.4065 37 28.1121 35.0509 31.5815 31.5815C35.0509 28.1121 37 23.4065 37 18.5C37 13.5935 35.0509 8.88795 31.5815 5.41852C28.1121 1.9491 23.4065 0 18.5 0ZM25.0521 1.72667C25.5454 1.72667 26.0542 1.77292 26.3779 1.88083C23.0325 2.57458 20.3654 5.68875 20.3808 9.25C20.3808 9.32708 20.3808 9.41958 20.3962 9.51208C26.0079 10.8842 28.5208 14.2604 28.5208 18.9317C28.5825 23.6029 24.8825 28.7367 18.6387 28.7521C13.5975 28.7675 8.34042 24.4508 8.30958 17.5287C8.29417 12.95 10.7917 8.54083 13.9367 5.93542C17.02 3.37625 21.2287 1.74208 25.0521 1.72667Z" fill="black"/>
</svg>
