<svg width="93" height="21" viewBox="0 0 93 21" fill="none" xmlns="http://www.w3.org/2000/svg">
<path d="M84.1006 10.1217C84.0429 10.434 83.9749 10.2838 83.9245 10.1311C82.8709 6.60506 79.5182 4.02732 75.5452 4.02732C71.5842 4.02732 68.2397 6.58971 67.1755 10.0995C67.1272 10.2838 66.9784 10.2375 66.9763 10.0987C66.8905 6.35525 64.0348 3.88707 60.3125 3.90995C58.4285 3.92139 56.8952 4.65681 56.3265 5.46047C56.2802 5.53033 56.1665 5.55267 56.1665 5.39062V0H52.1351V12.6319C52.1351 14.5291 50.9896 17.1665 48.2867 17.1665C45.8127 17.1665 44.6216 15.7323 44.6216 12.9097V7.77347H50.9437V3.8868H44.6216V0H40.5901V10.1103C40.5901 10.3532 40.4412 10.3532 40.3525 10.1211C39.3115 6.58312 35.9778 3.9864 32.0689 3.9864C29.4469 3.9864 27.1745 5.09491 25.5723 6.92674C25.5062 6.9869 25.4605 6.92916 25.4719 6.84813V3.8868C18.6853 3.8868 17.1601 7.75893 16.7989 10.1678C16.7675 10.3648 16.5728 10.3532 16.5301 10.1556C15.5244 6.59415 12.2785 3.9864 8.42955 3.9864C6.81884 3.9864 5.31426 4.67337 4.03244 5.87785C4.03244 5.87785 4.03151 0.000134594 4.03244 0.000134594L0 0L0.00691579 12.493C0.0172895 17.1911 3.77789 21 8.42955 21C12.3281 21 15.608 18.3247 16.5678 14.6928C16.6071 14.5869 16.6758 14.5984 16.6758 14.6909V20.5441H20.7074V12.5396C20.7074 8.53527 23.0178 7.88975 24.7621 7.79069C24.8762 7.78504 24.8796 7.8374 24.8378 7.89796C23.9771 9.22318 23.4778 10.8006 23.4778 12.493C23.4778 17.1911 27.3242 21 32.0689 21C35.97 21 39.2868 18.4251 40.3348 14.8981C40.3954 14.5869 40.5813 14.5873 40.6087 14.8994C40.8178 17.5356 42.8186 20.9143 47.9202 20.9143C49.6255 20.9143 51.2154 19.9577 51.8215 19.255C51.9745 19.1099 52.135 19.1099 52.135 19.3874V20.5441H56.1664V11.452C56.258 9.74002 57.1284 7.56538 59.4877 7.56538C62.4427 7.56538 62.9466 9.53193 62.9466 10.2722V20.5443H66.9783V14.9108C66.9783 14.7489 67.15 14.7721 67.1693 14.8659C68.2262 18.3866 71.5761 20.9591 75.5452 20.9591C79.5042 20.9591 82.7379 18.6126 83.4377 14.9269L79.6801 14.9242C78.9068 16.6292 77.3453 17.7945 75.5452 17.7945C73.4012 17.7945 71.5959 16.1295 71.0574 13.8803L75.2704 13.8813H83.929V20.5443H87.9607V12.5396C87.9607 7.95853 91.2591 7.77347 93 7.77347V3.8868C86.2562 3.8868 84.5509 7.71007 84.1006 10.1217ZM8.1996 17.2862C5.58756 17.2862 3.47 15.1473 3.47 12.5091C3.47 9.87111 5.58756 7.73241 8.1996 7.73241C10.8116 7.73241 12.9292 9.87125 12.9292 12.5091C12.9292 15.1473 10.8116 17.2862 8.1996 17.2862ZM31.9817 17.2862C29.3696 17.2862 27.2521 15.1473 27.2521 12.5091C27.2521 9.87111 29.3696 7.73241 31.9817 7.73241C34.5939 7.73241 36.7113 9.87125 36.7113 12.5091C36.7114 15.1473 34.5939 17.2862 31.9817 17.2862ZM75.4456 10.5302V10.5295H71.3939C72.0757 8.56676 73.7559 7.1787 75.7204 7.1787C77.6854 7.1787 79.3655 8.56717 80.0474 10.5302H75.4456ZM90.5228 19.2664C90.3719 19.1147 90.1893 19.0388 89.9753 19.0388C89.7627 19.0388 89.5812 19.1147 89.4311 19.2664C89.2801 19.4187 89.2048 19.6024 89.2048 19.8172C89.2048 20.034 89.2794 20.2188 89.4291 20.371C89.5792 20.5243 89.7613 20.6008 89.9753 20.6008C90.1893 20.6008 90.3719 20.5243 90.5228 20.371C90.6738 20.218 90.749 20.0332 90.749 19.8172C90.749 19.6016 90.6736 19.418 90.5228 19.2664ZM90.4458 20.2955C90.3167 20.4274 90.1599 20.4933 89.9752 20.4933C89.7907 20.4933 89.6339 20.4276 89.5047 20.2955C89.3761 20.1636 89.312 20.0043 89.312 19.8171C89.312 19.6312 89.3764 19.4729 89.5058 19.3418C89.6355 19.2099 89.792 19.1438 89.9752 19.1438C90.1591 19.1438 90.3159 19.2098 90.4458 19.3418C90.575 19.473 90.6396 19.6312 90.6396 19.8171C90.6396 20.0043 90.575 20.1636 90.4458 20.2955Z" fill="black"/>
</svg>
