<svg width="44" height="44" viewBox="0 0 44 44" fill="none" xmlns="http://www.w3.org/2000/svg">
<path d="M32.9371 26.769V17.0948H35.1714V24.8001H39.0955V26.7622H32.9371V26.769ZM14.998 20.7385L20.4621 16.5352C20.9777 16.9505 21.4865 17.3726 22.0021 17.7961L16.8171 21.7202L17.9418 22.7019L23.1199 18.6348C23.6355 19.0569 24.1511 19.4804 24.6667 19.9025C22.948 21.2637 21.2156 22.6167 19.4818 23.9628L20.5996 24.9445L25.7914 20.7412L25.7846 17.0962H28.0258V24.8015H32.0929V26.7635H25.9276V23.1254C24.1016 24.5224 22.2826 25.9248 20.4635 27.3218L14.9994 23.1254C14.734 24.4577 13.8032 25.6182 12.5932 26.2259C12.0707 26.4982 11.4974 26.67 10.9172 26.7347C10.5803 26.7773 10.2434 26.7635 9.90794 26.7635H6.44855V17.0962H10.4373C11.4754 17.11 12.486 17.4688 13.3013 18.1206C14.1318 18.7792 14.7258 19.7169 14.998 20.7412V20.7385ZM8.55361 19.0555V24.9417H10.3012C11.0464 24.9128 11.7408 24.5622 12.1986 23.982C12.9865 22.9934 13.1157 21.6336 12.5355 20.5157C12.1697 19.8145 11.518 19.2989 10.7453 19.1119C10.4373 19.0404 10.1224 19.0542 9.81444 19.0542L8.55361 19.0555ZM21.6721 0H22.2881C25.7474 0.0426237 29.1408 0.908846 32.1987 2.51342C35.1852 4.08912 37.7701 6.31655 39.761 9.03759C42.4532 12.7046 43.9354 17.1223 44 21.6707V22.3293C43.9285 27.8071 41.8152 33.0636 38.0698 37.0606C33.9876 41.4151 28.3021 43.9216 22.3362 44H21.6707C19.0707 43.9643 16.5009 43.4624 14.0727 42.5247C11.1152 41.3711 8.44361 39.596 6.23818 37.326C3.87463 34.8909 2.09956 31.9554 1.05322 28.7325C0.387738 26.6632 0.0357489 24.5072 0 22.3307V21.6721C0.0714978 17.4977 1.33921 13.4223 3.65189 9.94919C5.81469 6.68367 8.78598 4.04787 12.288 2.3003C15.2029 0.838724 18.4107 0.0522484 21.6693 0.00137496L21.6721 0ZM21.393 2.2563C17.0893 2.37868 12.9493 3.91038 9.60545 6.61079C6.86241 8.81623 4.76423 11.7091 3.51852 14.9967C1.70632 19.8159 1.83557 25.1507 3.86913 29.8778C5.27984 33.1145 7.52102 35.907 10.3713 37.9846C12.9631 39.8751 15.9715 41.1002 19.1435 41.5512C21.8151 41.9376 24.565 41.7808 27.1719 41.0782C30.7385 40.1116 33.9614 38.1702 36.4749 35.4643C38.9883 32.7639 40.6932 29.4062 41.3945 25.7818C41.9458 22.9384 41.8674 20.0098 41.1731 17.2021C39.5328 10.6133 34.6132 5.32933 28.1605 3.21602C25.9757 2.50655 23.685 2.17793 21.393 2.2563Z" fill="black"/>
</svg>
