<svg width="76" height="18" viewBox="0 0 76 18" fill="none" xmlns="http://www.w3.org/2000/svg">
<path d="M74.8638 0.825C74.6388 0.45 74.3388 0.15 73.0638 0.075C72.6888 0 71.5638 0 69.7638 0C64.8138 0 61.5138 1.5 59.7888 4.425C60.2388 1.5 57.3888 0 51.1638 0C43.8888 0 39.3138 2.925 37.5138 8.85C36.8388 11.025 36.7638 12.825 37.2888 14.175L35.5638 14.325C34.2138 14.4 32.4138 14.55 31.3638 14.55C28.6638 14.55 27.0138 14.1 26.3388 13.2C25.8138 12.375 25.8888 10.875 26.5638 8.7C27.6138 5.1 30.3888 3.45 34.8138 3.45C37.0638 3.45 39.3138 3.675 39.3138 3.675C39.6138 3.675 39.7638 3.375 39.7638 3.075L39.6888 2.775L39.5388 1.5C39.4638 0.75 38.8638 0.225 37.7388 0.075C36.7638 0.075 36.0138 0 34.9638 0H34.8888C29.1138 0 25.0638 1.875 22.8138 5.7C23.6388 1.875 21.0138 0 14.7888 0C11.3388 0 8.8638 0.075 7.3638 0.3C6.2388 0.45 5.5638 0.9 5.2638 1.725L4.8138 3.3C4.7388 3.525 4.8888 3.675 5.1888 3.675H5.2638C5.4888 3.675 6.5388 3.6 8.3388 3.45C10.6638 3.225 12.4638 3.15 13.5888 3.15C17.0388 3.15 18.4638 3.975 17.9388 5.7C17.7888 6.075 17.5638 6.3 17.1138 6.375C13.8888 6.9 11.3388 7.275 9.4638 7.575C4.1388 8.25 1.0638 9.9 0.238797 12.525C-0.886203 16.125 1.9638 17.925 8.7888 17.925C12.1638 17.925 15.0138 17.775 17.3388 17.4C18.6888 17.175 19.3638 16.8 19.6638 15.975L20.8638 11.925C20.7888 15.975 23.5638 18 29.4138 18C31.8888 18 34.2888 17.925 35.4138 17.7C36.6138 17.475 37.1388 17.25 37.4388 16.35L37.6638 15.075C38.9388 17.025 41.6388 17.925 45.8388 17.925C50.2638 17.925 52.8138 17.85 53.5638 17.55C54.1638 17.4 54.5388 17.1 54.6888 16.65C54.6888 16.575 54.6888 16.5 54.7638 16.35L55.2888 14.625C55.3638 14.325 55.2138 14.25 54.8388 14.25L52.0638 14.4C50.1138 14.475 48.6888 14.55 47.5638 14.55C45.6138 14.55 44.1888 14.4 43.4388 14.1C42.3138 13.65 41.7888 12.825 41.8638 11.55L50.7888 10.425C54.8388 9.9 57.5388 8.625 58.8888 6.675L55.8138 17.25C55.7388 17.475 55.8138 17.625 55.8888 17.7C56.0388 17.85 56.1888 17.925 56.4888 17.925H60.1638C60.8388 17.925 61.0638 17.625 61.1388 17.325L64.4388 5.925C64.8888 4.425 66.2388 3.675 68.6388 3.675C70.8138 3.675 72.4638 3.675 73.5138 3.75H73.5888C73.8138 3.75 74.1888 3.675 74.3388 3.15L74.9388 1.575C75.0888 1.275 75.0138 1.05 74.8638 0.825ZM15.1638 14.55C13.9638 14.7 12.3138 14.775 10.1388 14.775C6.3888 14.775 4.7388 14.025 5.1888 12.525C5.5638 11.4 6.5388 10.725 8.1888 10.575L16.7388 9.375L15.1638 14.55ZM54.7638 5.25C54.3888 6.45 52.7388 7.275 49.7388 7.65L42.6138 8.7L42.7638 8.1C43.3638 6.15 44.1888 4.875 45.3138 4.2C46.3638 3.45 48.1638 3.15 50.5638 3.15C53.7888 3.15 55.2138 3.825 54.7638 5.25Z" fill="black"/>
</svg>
