<svg width="944" height="1896" viewBox="0 0 944 1896" fill="none" xmlns="http://www.w3.org/2000/svg">
<g opacity="0.3">
<path d="M1838.61 1480.19C1838.61 1480.19 1611.12 1651.8 1496.14 1536.97C1381.15 1422.14 1572.05 1290.34 1463.05 1175.06C1354.05 1059.79 1335.01 1186.53 1222.14 1131.46C1109.26 1076.39 1134.1 929.384 1078.18 846.557C1022.26 763.73 955.445 876.494 889.924 780.129C824.404 683.764 848.888 604.069 763.772 514.054C678.656 424.04 648.681 447.164 615.867 425.999C583.054 404.834 588.764 328.973 588.764 328.973" stroke="#7209B7" stroke-width="6"/>
<path d="M1241.19 1477.93C1196.86 1477.52 1142.54 1492.05 1107.23 1438.45C1071.91 1384.86 1111.4 1313.59 1049.3 1247.92C987.201 1182.24 893.748 1274.96 814.663 1194.03C735.578 1113.1 833.433 967.509 790.152 919.706C746.871 871.904 655.073 892.594 607.494 855.814C559.915 819.034 615.036 788.66 531.657 700.483C448.278 612.305 272.874 719.881 174.926 599.376C76.9786 478.87 124.697 297.176 124.697 297.176" stroke="#4CC9F0" stroke-width="2"/>
<path d="M1786.97 1485.39C1783.56 1485.36 1569.39 1644.89 1460.54 1534.77C1351.68 1424.65 1530.93 1297.5 1425.54 1186.04C1320.15 1074.59 1295.38 1198.71 1185.11 1141.65C1074.83 1084.59 1105.29 937.694 1050.34 857.561C995.393 777.428 926.655 883.11 862.515 791.328C798.374 699.546 825.215 623.645 740.233 533.772C655.251 443.899 614.089 473.52 576.265 444.713C538.441 415.906 547.382 331.905 547.382 331.905" stroke="#7209B7" stroke-width="5.69231"/>
<path d="M1735.34 1490.59C1728.51 1490.52 1527.67 1637.97 1424.94 1532.56C1322.21 1427.15 1489.82 1304.66 1388.03 1197.02C1286.25 1089.38 1255.76 1210.88 1148.08 1151.83C1040.41 1092.79 1076.48 945.997 1022.5 868.558C968.528 791.119 897.868 889.718 835.108 802.52C772.348 715.322 801.545 643.215 716.696 553.483C631.848 463.751 579.499 499.868 536.665 463.419C493.83 426.971 506.003 334.829 506.003 334.829" stroke="#7209B7" stroke-width="5.38462"/>
<path d="M1683.71 1495.78C1673.47 1495.68 1485.95 1631.05 1389.35 1530.35C1292.75 1429.65 1448.71 1311.82 1350.53 1207.99C1252.35 1104.16 1216.14 1223.05 1111.06 1162.01C1005.99 1100.98 1047.67 954.295 994.672 879.55C941.67 804.806 869.088 896.322 807.708 813.707C746.328 731.092 777.883 662.779 693.167 573.189C608.452 483.598 544.917 526.212 497.072 482.121C449.227 438.031 464.631 337.748 464.631 337.748" stroke="#480CA8" stroke-width="5.07692"/>
<path d="M1632.09 1500.96C1618.44 1500.84 1444.24 1624.12 1353.77 1528.13C1263.29 1432.14 1407.61 1318.96 1313.04 1218.95C1218.47 1118.94 1176.53 1235.21 1074.06 1172.18C971.579 1109.16 1018.88 962.585 966.852 890.534C914.821 818.484 840.318 902.918 780.318 824.887C720.318 746.855 754.229 682.336 669.648 592.887C585.066 503.437 510.344 552.547 457.489 500.815C404.634 449.084 423.269 340.659 423.269 340.659" stroke="#173ED4" stroke-width="4.76923"/>
<path d="M1580.47 1506.14C1563.42 1505.98 1402.54 1617.18 1318.19 1525.9C1233.85 1434.62 1366.52 1326.1 1275.55 1229.9C1184.59 1133.71 1136.93 1247.36 1037.05 1182.35C937.177 1117.33 990.097 970.867 939.038 901.511C887.98 832.155 811.555 909.506 752.935 836.058C694.316 762.61 730.583 701.885 646.136 612.577C561.688 523.269 475.778 578.875 417.913 519.502C360.048 460.129 381.915 343.563 381.915 343.563" stroke="#1D4DD7" stroke-width="4.46154"/>
<path d="M1528.87 1511.3C1508.41 1511.11 1360.85 1610.23 1282.63 1523.66C1204.41 1437.09 1325.43 1333.23 1238.08 1240.85C1150.73 1148.47 1097.34 1259.5 1000.06 1192.5C902.785 1125.5 961.321 979.14 911.235 912.478C861.149 845.816 782.803 916.085 725.563 847.221C668.323 778.356 706.948 721.425 622.633 632.258C538.319 543.092 441.223 605.194 378.347 538.179C315.472 471.164 340.57 346.458 340.57 346.458" stroke="#235DDA" stroke-width="4.15385"/>
<path d="M1477.28 1516.46C1453.41 1516.24 1319.17 1603.27 1247.08 1521.41C1174.99 1439.55 1284.37 1340.35 1200.62 1251.78C1116.87 1163.21 1057.76 1271.63 963.084 1202.64C868.405 1133.65 932.559 987.4 883.444 923.432C834.33 859.465 754.062 922.651 698.203 858.37C642.343 794.089 683.324 740.951 599.143 651.926C514.963 562.901 406.68 631.499 338.794 556.843C270.908 482.186 299.238 349.339 299.238 349.339" stroke="#296CDE" stroke-width="3.84615"/>
<path d="M1436.21 1511.66C1408.93 1511.41 1288.01 1586.36 1222.05 1509.21C1156.09 1432.06 1253.82 1337.51 1173.68 1252.76C1093.54 1168.01 1028.71 1273.81 936.628 1202.83C844.547 1131.85 914.318 985.71 866.176 924.436C818.034 863.162 735.844 919.266 681.365 859.568C626.885 799.871 670.223 750.527 586.176 661.643C502.129 572.759 382.659 647.854 309.763 565.556C236.867 483.258 268.428 342.269 268.428 342.269" stroke="#2F7CE1" stroke-width="3.53846"/>
<path d="M1397.19 1504.93C1366.5 1504.64 1258.9 1567.51 1199.07 1495.07C1139.24 1422.64 1225.32 1332.74 1148.79 1251.81C1072.26 1170.87 1001.7 1274.06 912.22 1201.09C822.739 1128.11 898.126 982.085 850.956 923.506C803.787 864.926 719.675 913.947 666.576 858.833C613.477 803.719 659.171 758.17 575.257 669.427C491.344 580.684 360.687 662.275 282.781 572.336C204.874 482.396 239.667 333.266 239.667 333.266" stroke="#358BE4" stroke-width="3.23077"/>
<path d="M1358.18 1498.19C1324.08 1497.87 1229.8 1548.65 1176.1 1480.93C1122.4 1413.2 1196.83 1327.96 1123.91 1250.84C1050.98 1173.72 974.703 1274.29 887.821 1199.33C800.938 1124.37 881.943 978.45 835.745 922.565C789.548 866.679 703.515 908.618 651.795 858.087C600.076 807.557 648.127 765.801 564.347 677.2C480.568 588.598 338.724 676.686 255.807 579.105C172.89 481.523 210.914 324.252 210.914 324.252" stroke="#3A9BE7" stroke-width="2.92308"/>
<path d="M1319.18 1491.44C1281.67 1491.09 1200.71 1529.79 1153.14 1466.77C1105.56 1403.76 1168.35 1323.18 1099.03 1249.87C1029.72 1176.57 947.712 1274.52 863.429 1197.57C779.146 1120.62 865.767 974.808 820.542 921.617C775.316 868.426 687.361 903.281 637.022 857.334C586.683 811.387 637.091 773.426 553.445 684.965C469.798 596.505 316.768 691.089 228.841 585.866C140.914 480.644 182.169 315.232 182.169 315.232" stroke="#40AAEA" stroke-width="2.61538"/>
<path d="M1280.18 1484.69C1239.26 1484.31 1171.62 1510.92 1130.18 1452.62C1088.73 1394.31 1139.87 1318.39 1074.16 1248.9C1008.46 1179.41 920.728 1274.74 839.044 1195.8C757.36 1116.86 849.598 971.161 805.345 920.664C761.091 870.167 671.215 897.941 622.256 856.577C573.297 815.213 626.061 781.046 542.549 692.727C459.036 604.408 294.818 705.488 201.881 592.624C108.944 479.759 153.431 306.206 153.431 306.206" stroke="#46BAED" stroke-width="2.30769"/>
</g>
</svg>
