<svg width="35" height="26" viewBox="0 0 35 26" fill="none" xmlns="http://www.w3.org/2000/svg">
<path d="M22.099 25.2603C21.7395 25.2603 21.38 25.1307 21.0961 24.8528C20.5474 24.3157 20.5474 23.4266 21.0961 22.8894L31.5791 12.6278L21.0961 2.36628C20.5474 1.82912 20.5474 0.940028 21.0961 0.402869C21.6449 -0.13429 22.5532 -0.13429 23.1019 0.402869L34.5878 11.6461C35.1365 12.1833 35.1365 13.0724 34.5878 13.6095L23.1019 24.8528C22.8181 25.1307 22.4585 25.2603 22.099 25.2603Z" fill="#292D32"/>
<path d="M33.2656 14.0172H1.41918C0.643361 14.0172 0 13.3874 0 12.628C0 11.8685 0.643361 11.2388 1.41918 11.2388H33.2656C34.0414 11.2388 34.6847 11.8685 34.6847 12.628C34.6847 13.3874 34.0414 14.0172 33.2656 14.0172Z" fill="#292D32"/>
</svg>
