<svg width="1003" height="807" viewBox="0 0 1003 807" fill="none" xmlns="http://www.w3.org/2000/svg">
<g style="mix-blend-mode:luminosity" opacity="0.16">
<path d="M526.539 -973C526.539 -973 731.682 -762.631 642.408 -649.767C553.134 -536.902 392.68 -713.831 301.91 -606.634C211.141 -499.436 335.885 -485.471 303.443 -376.548C271.001 -267.626 125.814 -286.434 56.5702 -230.672C-12.6735 -174.911 107.273 -115.144 26.7941 -49.8296C-53.6848 15.4846 -134.372 -5.17256 -205.251 78.5357C-276.131 162.244 -248.611 189.947 -262.978 221.779C-277.345 253.611 -350.989 250.65 -350.989 250.65" stroke="#0000C8" stroke-width="6"/>
<path d="M631.68 -405.865C639.25 -363.768 662.917 -312.686 617.957 -277.426C572.997 -242.166 497.68 -277.342 445.967 -216.269C394.253 -155.196 499.793 -69.4971 436.527 8.19223C373.261 85.8816 216.314 -2.28247 178.328 40.3489C140.341 82.9803 176.636 169.443 149.973 215.796C123.311 262.149 84.3345 210.814 14.9011 292.814C-54.5322 374.814 79.9517 537.819 -17.8118 634.695C-115.575 731.571 -298.076 692.166 -298.076 692.166" stroke="#4CC9F0" stroke-width="2"/>
<path d="M540.794 -924.152C541.376 -920.914 732.56 -722.797 646.695 -615.903C560.829 -509.008 406.924 -675.033 319.159 -571.384C231.393 -467.734 354.66 -448.251 319.847 -341.731C285.034 -235.211 138.943 -259.355 72.1034 -204.603C5.26411 -149.851 118.776 -88.0306 42.4366 -24.1749C-33.9025 39.6808 -111.381 16.6637 -182.149 100.241C-252.918 183.817 -217.17 221.928 -237.952 258.764C-258.734 295.599 -340.752 289.835 -340.752 289.835" stroke="#060FCB" stroke-width="5.69231"/>
<path d="M555.044 -875.308C556.208 -868.831 733.432 -682.967 650.975 -582.043C568.519 -481.118 421.163 -636.238 336.402 -536.137C251.641 -436.035 373.43 -411.034 336.246 -306.917C299.062 -202.799 152.066 -232.278 87.6309 -178.536C23.1961 -124.794 130.273 -60.9205 58.0735 1.47668C-14.1259 63.8739 -88.3957 38.497 -159.053 121.942C-229.71 205.388 -185.734 253.906 -212.931 295.745C-240.129 337.584 -330.52 329.017 -330.52 329.017" stroke="#0C1FCE" stroke-width="5.38462"/>
<path d="M569.286 -826.473C571.033 -816.758 734.297 -643.147 655.249 -548.192C576.202 -453.236 435.394 -597.453 353.638 -500.9C271.881 -404.346 392.193 -373.827 352.638 -272.112C313.083 -170.397 165.182 -205.211 103.152 -152.479C41.1212 -99.7473 141.763 -33.8199 73.7036 27.1187C5.64391 88.0573 -65.4173 60.3205 -135.963 143.635C-206.509 226.949 -154.305 285.875 -187.918 332.717C-221.53 379.56 -320.295 368.189 -320.295 368.189" stroke="#122ED1" stroke-width="5.07692"/>
<path d="M583.521 -777.643C585.85 -764.69 735.154 -603.332 659.515 -514.346C583.876 -425.361 449.618 -558.673 370.866 -465.668C292.113 -372.662 410.948 -336.625 369.022 -237.313C327.096 -138 178.29 -178.149 118.664 -126.427C59.0384 -74.7057 153.246 -6.72487 89.3258 52.7552C25.4058 112.235 -42.4469 82.1386 -112.882 165.321C-183.317 248.504 -122.884 317.838 -162.912 369.684C-202.94 421.53 -310.078 407.355 -310.078 407.355" stroke="#173ED4" stroke-width="4.76923"/>
<path d="M597.745 -728.819C600.657 -712.628 736.001 -563.523 663.771 -480.507C591.541 -397.491 463.832 -519.899 388.084 -430.442C312.336 -340.984 429.694 -299.429 385.396 -202.519C341.099 -105.609 191.389 -151.093 134.167 -100.382C76.9457 -49.67 164.718 20.3644 104.938 78.3859C45.1578 136.407 -19.4865 103.951 -89.81 187.002C-160.134 270.053 -91.4734 349.795 -137.916 406.644C-184.359 463.494 -299.87 446.516 -299.87 446.516" stroke="#1D4DD7" stroke-width="4.46154"/>
<path d="M611.96 -680.006C615.454 -660.577 736.838 -523.724 668.017 -446.678C599.196 -369.631 478.036 -481.136 405.292 -395.226C332.548 -309.317 448.429 -262.244 401.76 -167.737C355.092 -73.2293 204.477 -124.048 149.66 -74.3465C94.8428 -24.6448 176.181 47.4431 120.54 104.006C64.8996 160.569 3.46379 125.753 -66.7485 208.672C-136.961 291.592 -60.0726 381.742 -112.93 443.595C-165.788 505.447 -289.673 485.666 -289.673 485.666" stroke="#235DDA" stroke-width="4.15385"/>
<path d="M626.158 -631.205C630.234 -608.538 737.659 -483.938 672.246 -412.861C606.834 -341.784 492.223 -442.385 422.483 -360.023C352.744 -277.662 467.147 -225.071 418.108 -132.966C369.068 -40.8615 217.549 -97.0155 165.136 -48.3238C112.723 0.36781 187.626 74.5093 136.126 129.614C84.6248 184.718 26.3975 147.542 -43.7035 230.33C-113.804 313.119 -28.6884 413.676 -87.9613 480.532C-147.234 547.388 -279.493 524.804 -279.493 524.804" stroke="#296CDE" stroke-width="3.84615"/>
<path d="M628.943 -592.069C633.601 -566.163 727.066 -453.816 665.062 -388.709C603.058 -323.601 494.997 -413.298 428.261 -334.484C361.526 -255.671 474.453 -197.562 423.042 -107.86C371.631 -18.1577 219.207 -79.6467 169.199 -31.9651C119.191 15.7165 187.659 91.9115 140.298 145.557C92.9368 199.203 37.918 159.667 -32.0717 242.324C-102.061 324.981 -8.71735 435.947 -74.4053 507.806C-140.093 579.665 -280.726 554.277 -280.726 554.277" stroke="#2F7CE1" stroke-width="3.53846"/>
<path d="M629.508 -554.812C634.748 -525.668 714.254 -425.574 655.659 -366.437C597.064 -307.299 495.551 -386.091 431.82 -310.826C368.089 -235.56 479.538 -171.933 425.756 -84.6337C371.975 2.66591 218.646 -64.1581 171.042 -17.4865C123.438 29.185 185.472 107.434 142.25 159.621C99.029 211.808 47.2186 169.912 -22.6598 252.438C-92.5382 334.964 9.03381 456.337 -63.0692 533.199C-135.172 610.062 -284.178 581.871 -284.178 581.871" stroke="#358BE4" stroke-width="3.23077"/>
<path d="M630.061 -517.569C635.884 -485.187 701.43 -397.346 646.244 -344.178C591.057 -291.01 496.094 -358.898 435.367 -287.181C374.641 -215.463 484.612 -146.318 428.46 -61.4212C372.307 23.4758 218.074 -48.6831 172.874 -3.02163C127.675 42.6399 183.273 122.942 144.192 173.671C105.11 224.4 56.5083 180.144 -13.2589 262.538C-83.0261 344.932 26.7738 476.713 -51.7443 558.579C-130.262 640.445 -287.642 609.451 -287.642 609.451" stroke="#3A9BE7" stroke-width="2.92308"/>
<path d="M630.606 -480.33C637.012 -444.709 688.598 -369.121 636.82 -321.922C585.042 -274.724 496.628 -331.708 438.905 -263.539C381.183 -195.37 489.678 -120.706 431.154 -38.2119C372.63 44.2825 217.492 -33.2115 174.697 11.44C131.902 56.0915 181.066 138.447 146.124 187.717C111.182 236.988 65.7889 190.372 -3.86703 272.635C-73.5229 354.897 44.505 497.086 -40.4282 583.956C-125.361 670.825 -291.115 637.027 -291.115 637.027" stroke="#40AAEA" stroke-width="2.61538"/>
<path d="M631.146 -443.096C638.133 -404.237 675.76 -340.902 627.391 -299.673C579.022 -258.444 497.156 -304.524 442.438 -239.903C387.721 -175.282 494.738 -95.1004 433.843 -15.0085C372.948 65.0834 216.905 -17.7457 176.515 25.8957C136.124 69.5371 178.854 153.946 148.051 201.758C117.249 249.57 75.0642 200.594 5.51961 282.725C-64.025 364.857 62.2309 517.454 -29.1175 609.327C-120.466 701.199 -294.593 664.598 -294.593 664.598" stroke="#46BAED" stroke-width="2.30769"/>
</g>
</svg>
