<svg width="1272" height="1381" viewBox="0 0 1272 1381" fill="none" xmlns="http://www.w3.org/2000/svg">
<g style="mix-blend-mode:luminosity" opacity="0.06">
<path d="M428.614 1378.88C428.614 1378.88 246.843 1194.78 341.971 1068.6C437.099 942.425 578.302 1098.92 674.431 978.257C770.56 857.591 651.095 860.649 690.988 746.262C730.881 631.876 869.724 630.895 941.017 565.099C1012.31 499.303 901.071 455.477 983.971 378.496C1066.87 301.515 1143.23 311.268 1218.3 217.043C1293.36 122.818 1268.94 98.6443 1285.32 64.5433C1301.7 30.4423 1372.64 23.305 1372.64 23.305" stroke="#7209B7" stroke-width="6"/>
<path d="M371.46 820.98C367.444 779.536 348.576 731.237 394.792 689.47C441.009 647.704 511.042 672.849 565.809 604.103C620.576 535.357 525.294 463.379 592.529 376.275C659.763 289.171 804.535 356.569 844.59 308.322C884.644 260.075 856.345 177.805 885.747 127.359C915.149 76.913 948.794 123.363 1022.33 31.0605C1095.86 -61.2417 978.666 -207.258 1080.75 -318.468C1182.82 -429.679 1356.12 -415.004 1356.12 -415.004" stroke="#4CC9F0" stroke-width="2"/>
<path d="M418.666 1331.55C418.357 1328.36 249.117 1154.7 340.483 1035.02C431.848 915.334 567.576 1061.73 660.524 945.056C753.472 828.384 635.866 825.67 677.862 713.381C719.859 601.093 859.158 605.373 928.048 540.927C996.938 476.48 892.079 429.698 970.864 354.758C1049.65 279.817 1122.72 292.394 1197.67 198.317C1272.62 104.239 1241.06 70.6931 1264.03 30.6606C1287 -9.37184 1365.82 -14.8313 1365.82 -14.8313" stroke="#7209B7" stroke-width="5.69231"/>
<path d="M408.724 1284.21C408.106 1277.84 251.397 1114.63 339 1001.43C426.604 888.243 556.857 1024.53 646.623 911.854C736.389 799.176 620.644 790.69 664.743 680.501C708.843 570.311 848.598 579.851 915.085 516.754C981.572 453.658 883.093 403.918 957.763 331.019C1032.43 258.12 1102.22 273.519 1177.05 179.59C1251.88 85.6606 1213.18 42.7418 1242.75 -3.22222C1272.31 -49.1862 1359 -52.9678 1359 -52.9678" stroke="#7209B7" stroke-width="5.38462"/>
<path d="M398.788 1236.88C397.861 1227.32 253.683 1074.56 337.523 967.858C421.364 861.159 546.143 987.345 632.727 878.661C719.311 769.976 605.427 755.718 651.629 647.628C697.832 539.537 838.043 554.336 902.127 492.59C966.211 430.843 874.113 378.146 944.667 307.288C1015.22 236.43 1081.73 254.652 1156.44 160.871C1231.15 67.0898 1185.31 14.7984 1221.47 -37.0971C1257.63 -88.9926 1352.19 -91.0962 1352.19 -91.0962" stroke="#480CA8" stroke-width="5.07692"/>
<path d="M388.859 1189.56C387.623 1176.81 255.976 1034.49 336.054 934.287C416.133 834.082 535.437 950.163 618.84 845.473C702.242 740.782 590.218 720.752 638.523 614.76C686.829 508.768 827.497 528.827 889.178 468.431C950.859 408.034 865.14 352.38 931.579 283.563C998.019 214.747 1061.24 235.791 1135.83 142.158C1210.42 48.5246 1157.45 -13.1393 1200.2 -70.9663C1242.95 -128.793 1345.39 -129.219 1345.39 -129.219" stroke="#173ED4" stroke-width="4.76923"/>
<path d="M378.938 1142.24C377.393 1126.3 258.277 994.434 334.593 900.722C410.909 807.01 524.738 912.987 604.959 812.291C685.18 711.594 575.016 685.792 625.425 581.899C675.834 478.005 816.957 503.324 876.235 444.278C935.513 385.231 856.175 326.62 918.499 259.844C980.823 193.069 1040.75 216.936 1115.23 123.451C1189.71 29.965 1129.6 -41.0712 1178.94 -104.83C1228.28 -168.588 1338.59 -167.336 1338.59 -167.336" stroke="#1D4DD7" stroke-width="4.46154"/>
<path d="M369.028 1094.94C367.175 1075.81 260.589 954.385 333.143 867.166C405.696 779.947 514.052 875.82 591.091 779.117C668.13 682.414 559.826 650.84 612.338 549.046C664.85 447.251 806.43 477.83 863.305 420.133C920.18 362.436 847.221 300.868 905.43 236.133C963.639 171.399 1020.28 198.089 1094.64 104.752C1169 11.4141 1101.76 -68.9946 1157.69 -138.685C1213.63 -208.375 1331.81 -205.445 1331.81 -205.445" stroke="#235DDA" stroke-width="4.15385"/>
<path d="M359.13 1047.64C356.967 1025.32 262.913 914.344 331.704 833.619C400.495 752.893 503.376 838.662 577.233 745.953C651.09 653.244 544.647 615.898 599.262 516.202C653.878 416.506 795.913 452.345 850.386 395.998C904.858 339.651 838.279 275.126 892.373 212.432C946.466 149.739 999.826 179.252 1074.07 86.0624C1148.31 -7.12723 1073.93 -96.9084 1136.45 -172.53C1198.98 -248.151 1325.03 -243.544 1325.03 -243.544" stroke="#296CDE" stroke-width="3.84615"/>
<path d="M359.507 1008.52C357.036 983.02 275.513 882.489 340.541 808.256C405.57 734.024 502.976 809.689 573.651 720.974C644.327 632.259 539.744 589.141 596.462 491.544C653.181 393.946 795.673 435.044 847.742 380.048C899.811 325.051 839.612 257.568 889.591 196.916C939.569 136.264 989.643 168.6 1063.77 75.5578C1137.89 -17.4839 1056.37 -116.638 1125.49 -198.191C1194.61 -279.744 1328.54 -273.458 1328.54 -273.458" stroke="#2F7CE1" stroke-width="3.53846"/>
<path d="M361.882 971.004C359.102 942.312 290.11 852.227 351.376 784.488C412.642 716.749 504.574 782.31 572.068 697.589C639.561 612.867 536.838 563.977 595.66 468.479C654.482 372.98 797.43 419.338 847.096 365.692C896.762 312.045 842.943 241.604 888.807 182.994C934.67 124.383 981.458 159.541 1055.46 66.6473C1129.47 -26.2465 1040.82 -134.773 1116.53 -222.257C1192.24 -309.742 1334.04 -301.778 1334.04 -301.778" stroke="#358BE4" stroke-width="3.23077"/>
<path d="M364.268 933.489C361.179 901.61 304.717 821.971 362.221 760.725C419.725 699.479 506.182 754.936 570.494 674.209C634.806 593.481 533.943 538.82 594.868 445.42C655.793 352.02 799.197 403.638 846.46 351.341C893.724 299.044 846.285 225.646 888.033 169.077C929.781 112.507 973.283 150.488 1047.17 57.7424C1121.06 -35.0035 1025.27 -152.902 1107.57 -246.318C1189.88 -339.734 1339.55 -330.093 1339.55 -330.093" stroke="#3A9BE7" stroke-width="2.92308"/>
<path d="M366.659 895.982C363.261 860.914 319.331 791.722 373.072 736.969C426.814 682.217 507.796 727.569 568.926 650.836C630.057 574.102 531.054 513.668 594.082 422.367C657.111 331.066 800.971 387.943 845.831 336.996C890.691 286.05 849.632 209.695 887.265 155.166C924.898 100.638 965.114 141.442 1038.88 48.8438C1112.65 -43.7542 1009.73 -171.025 1098.62 -270.373C1187.52 -369.72 1345.06 -358.401 1345.06 -358.401" stroke="#40AAEA" stroke-width="2.61538"/>
<path d="M369.057 858.479C365.35 820.223 333.951 761.478 383.93 713.219C433.909 664.959 509.417 700.208 567.365 627.468C625.314 554.728 528.172 488.522 593.303 399.32C658.435 310.117 802.751 372.255 845.208 322.658C887.665 273.061 852.986 193.749 886.504 141.262C920.021 88.7742 956.952 132.401 1030.6 39.9509C1104.25 -52.4991 994.195 -189.143 1089.68 -294.422C1185.17 -399.701 1350.59 -386.704 1350.59 -386.704" stroke="#46BAED" stroke-width="2.30769"/>
</g>
</svg>
