<svg width="56" height="213" viewBox="0 0 56 213" fill="none" xmlns="http://www.w3.org/2000/svg">
<g filter="url(#filter0_d_342_131)">
<path d="M21 205C14.9249 205 10 200.075 10 194L9.99999 19C9.99999 12.9249 14.9249 8 21 8L56 8L56 205L21 205Z" fill="url(#paint0_linear_342_131)"/>
<path d="M33 170.507C31.6267 170.507 30.4 170.2 29.32 169.587C28.2267 168.96 27.38 168.113 26.78 167.047C26.1667 165.967 25.86 164.76 25.86 163.427C25.86 161.867 26.26 160.5 27.06 159.327C27.86 158.153 28.9667 157.333 30.38 156.867L30.38 160.087C29.7133 160.407 29.2133 160.86 28.88 161.447C28.5467 162.02 28.38 162.687 28.38 163.447C28.38 164.26 28.5733 164.987 28.96 165.627C29.3333 166.253 29.8667 166.747 30.56 167.107C31.2533 167.453 32.0667 167.627 33 167.627C33.92 167.627 34.7333 167.453 35.44 167.107C36.1333 166.747 36.6733 166.253 37.06 165.627C37.4333 164.987 37.62 164.26 37.62 163.447C37.62 162.687 37.4533 162.02 37.12 161.447C36.7733 160.86 36.2667 160.407 35.6 160.087L35.6 156.867C37.0267 157.333 38.14 158.153 38.94 159.327C39.7267 160.487 40.12 161.853 40.12 163.427C40.12 164.76 39.82 165.967 39.22 167.047C38.6067 168.113 37.76 168.96 36.68 169.587C35.6 170.2 34.3733 170.507 33 170.507ZM40.14 147.995C40.14 149.302 39.8333 150.502 39.22 151.595C38.6067 152.689 37.76 153.555 36.68 154.195C35.5867 154.835 34.3533 155.155 32.98 155.155C31.62 155.155 30.4 154.835 29.32 154.195C28.2267 153.555 27.3733 152.689 26.76 151.595C26.1467 150.502 25.84 149.302 25.84 147.995C25.84 146.675 26.1467 145.475 26.76 144.395C27.3733 143.302 28.2267 142.442 29.32 141.815C30.4 141.175 31.62 140.855 32.98 140.855C34.3533 140.855 35.5867 141.175 36.68 141.815C37.76 142.442 38.6067 143.302 39.22 144.395C39.8333 145.489 40.14 146.689 40.14 147.995ZM37.64 147.995C37.64 147.155 37.4533 146.415 37.08 145.775C36.6933 145.135 36.1467 144.635 35.44 144.275C34.7333 143.915 33.9133 143.735 32.98 143.735C32.0467 143.735 31.2333 143.915 30.54 144.275C29.8333 144.635 29.2933 145.135 28.92 145.775C28.5467 146.415 28.36 147.155 28.36 147.995C28.36 148.835 28.5467 149.582 28.92 150.235C29.2933 150.875 29.8333 151.375 30.54 151.735C31.2333 152.095 32.0467 152.275 32.98 152.275C33.9133 152.275 34.7333 152.095 35.44 151.735C36.1467 151.375 36.6933 150.875 37.08 150.235C37.4533 149.582 37.64 148.835 37.64 147.995ZM40 126.832L40 129.632L30.42 135.972L40 135.972L40 138.772L26.02 138.772L26.02 135.972L35.62 129.632L26.02 129.632L26.02 126.832L40 126.832ZM26.04 114.565L28.3 114.565L28.3 118.285L40 118.285L40 121.085L28.3 121.085L28.3 124.805L26.04 124.805L26.04 114.565ZM37.34 103.962L37.34 109.522L40 110.442L40 113.382L26.02 108.362L26.02 105.102L40 100.082L40 103.042L37.34 103.962ZM35.1 104.722L29.26 106.742L35.1 108.762L35.1 104.722ZM33 98.8857C31.6267 98.8857 30.4 98.579 29.32 97.9657C28.2267 97.339 27.38 96.4924 26.78 95.4257C26.1667 94.3457 25.86 93.139 25.86 91.8057C25.86 90.2457 26.26 88.879 27.06 87.7057C27.86 86.5324 28.9667 85.7124 30.38 85.2457L30.38 88.4657C29.7133 88.7857 29.2133 89.239 28.88 89.8257C28.5467 90.399 28.38 91.0657 28.38 91.8257C28.38 92.639 28.5733 93.3657 28.96 94.0057C29.3333 94.6324 29.8667 95.1257 30.56 95.4857C31.2533 95.8324 32.0667 96.0057 33 96.0057C33.92 96.0057 34.7333 95.8324 35.44 95.4857C36.1333 95.1257 36.6733 94.6324 37.06 94.0057C37.4333 93.3657 37.62 92.639 37.62 91.8257C37.62 91.0657 37.4533 90.399 37.12 89.8257C36.7733 89.239 36.2667 88.7857 35.6 88.4657L35.6 85.2457C37.0267 85.7124 38.14 86.5324 38.94 87.7057C39.7267 88.8657 40.12 90.2324 40.12 91.8057C40.12 93.139 39.82 94.3457 39.22 95.4257C38.6067 96.4924 37.76 97.339 36.68 97.9657C35.6 98.579 34.3733 98.8857 33 98.8857ZM26.04 73.3541L28.3 73.3541L28.3 77.0741L40 77.0741L40 79.8741L28.3 79.8741L28.3 83.5941L26.04 83.5941L26.04 73.3541ZM26.04 63.7855L34.68 63.7855C35.6267 63.7855 36.3533 63.5389 36.86 63.0455C37.3533 62.5522 37.6 61.8589 37.6 60.9655C37.6 60.0589 37.3533 59.3589 36.86 58.8655C36.3533 58.3722 35.6267 58.1255 34.68 58.1255L26.04 58.1255L26.04 55.3055L34.66 55.3055C35.8467 55.3055 36.8533 55.5655 37.68 56.0855C38.4933 56.5922 39.1067 57.2789 39.52 58.1455C39.9333 58.9989 40.14 59.9522 40.14 61.0055C40.14 62.0455 39.9333 62.9922 39.52 63.8455C39.1067 64.6855 38.4933 65.3522 37.68 65.8455C36.8533 66.3389 35.8467 66.5855 34.66 66.5855L26.04 66.5855L26.04 63.7855ZM40.14 47.7802C40.14 48.7536 39.9733 49.6336 39.64 50.4202C39.3067 51.1936 38.8267 51.8069 38.2 52.2602C37.5733 52.7136 36.8333 52.9469 35.98 52.9602L35.98 49.9602C36.5533 49.9202 37.0067 49.7202 37.34 49.3602C37.6733 48.9869 37.84 48.4802 37.84 47.8402C37.84 47.1869 37.6867 46.6736 37.38 46.3002C37.06 45.9269 36.6467 45.7402 36.14 45.7402C35.7267 45.7402 35.3867 45.8669 35.12 46.1202C34.8533 46.3736 34.6467 46.6936 34.5 47.0802C34.34 47.4536 34.1667 47.9736 33.98 48.6402C33.7133 49.5469 33.4533 50.2869 33.2 50.8602C32.9333 51.4202 32.54 51.9069 32.02 52.3202C31.4867 52.7202 30.78 52.9202 29.9 52.9202C29.0733 52.9202 28.3533 52.7136 27.74 52.3002C27.1267 51.8869 26.66 51.3069 26.34 50.5602C26.0067 49.8136 25.84 48.9602 25.84 48.0002C25.84 46.5602 26.1933 45.3936 26.9 44.5002C27.5933 43.5936 28.5667 43.0936 29.82 43.0002L29.82 46.0802C29.34 46.1069 28.9467 46.3136 28.64 46.7002C28.32 47.0736 28.16 47.5736 28.16 48.2002C28.16 48.7469 28.3 49.1869 28.58 49.5202C28.86 49.8402 29.2667 50.0002 29.8 50.0002C30.1733 50.0002 30.4867 49.8802 30.74 49.6402C30.98 49.3869 31.18 49.0802 31.34 48.7202C31.4867 48.3469 31.66 47.8269 31.86 47.1602C32.1267 46.2536 32.3933 45.5136 32.66 44.9402C32.9267 44.3669 33.3267 43.8736 33.86 43.4602C34.3933 43.0469 35.0933 42.8402 35.96 42.8402C36.7067 42.8402 37.4 43.0336 38.04 43.4202C38.68 43.8069 39.1933 44.3736 39.58 45.1202C39.9533 45.8669 40.14 46.7536 40.14 47.7802Z" fill="#FAFAFA"/>
</g>
<defs>
<filter id="filter0_d_342_131" x="0" y="0" width="62" height="213" filterUnits="userSpaceOnUse" color-interpolation-filters="sRGB">
<feFlood flood-opacity="0" result="BackgroundImageFix"/>
<feColorMatrix in="SourceAlpha" type="matrix" values="0 0 0 0 0 0 0 0 0 0 0 0 0 0 0 0 0 0 127 0" result="hardAlpha"/>
<feOffset dx="-2"/>
<feGaussianBlur stdDeviation="4"/>
<feComposite in2="hardAlpha" operator="out"/>
<feColorMatrix type="matrix" values="0 0 0 0 0 0 0 0 0 0 0 0 0 0 0 0 0 0 0.27 0"/>
<feBlend mode="normal" in2="BackgroundImageFix" result="effect1_dropShadow_342_131"/>
<feBlend mode="normal" in="SourceGraphic" in2="effect1_dropShadow_342_131" result="shape"/>
</filter>
<linearGradient id="paint0_linear_342_131" x1="10" y1="-2.49999" x2="67.5" y2="223.5" gradientUnits="userSpaceOnUse">
<stop stop-color="#0000C8"/>
<stop offset="1" stop-color="#46BAED"/>
</linearGradient>
</defs>
</svg>
