<svg width="1440" height="1862" viewBox="0 0 1440 1862" fill="none" xmlns="http://www.w3.org/2000/svg">
<g style="mix-blend-mode:luminosity" opacity="0.04">
<path d="M2147.51 1860.24C2147.51 1860.24 2305.35 1389.76 2060.31 1268.13C1815.27 1146.5 1702.49 1534.27 1459.86 1422.67C1217.23 1311.07 1411.53 1206.93 1263.9 1054.31C1116.26 901.682 892.33 1026.97 729.683 983.376C567.037 939.777 713.883 765.651 524.411 714.172C334.939 662.694 219.293 748.617 29.8302 661.472C-159.633 574.327 -138.01 512.039 -189.238 470.641C-240.466 429.243 -359.729 482.291 -359.729 482.291" stroke="#7209B7" stroke-width="6"/>
<path d="M1832.14 885.746C1808.34 813.566 1803.42 716.478 1698.63 689.681C1593.84 662.884 1499.61 768.464 1361.37 704.884C1223.14 641.304 1323.79 435.225 1152.11 352.694C980.436 270.163 796.883 513.907 697.27 470.764C597.656 427.622 583.099 265.758 499.005 209.243C414.911 152.728 394.727 260.266 209.13 174.899C23.534 89.5325 105.362 -258.966 -139.931 -349.496C-385.223 -440.026 -653.11 -257.367 -653.11 -257.367" stroke="#4CC9F0" stroke-width="2"/>
<path d="M2128.94 1772.9C2127.11 1767.35 2272.44 1325.59 2038.18 1211.25C1803.93 1096.92 1692.58 1462.98 1457.98 1355.08C1223.39 1247.17 1410.48 1135.19 1260.99 987.955C1111.51 840.723 890.685 975.127 732.887 931.564C575.089 888 709.52 714.817 528.154 662.952C346.788 611.086 238.485 698.672 49.3194 611.663C-139.846 524.655 -113.592 440.351 -179.748 395.174C-245.904 349.996 -376.6 413.014 -376.6 413.014" stroke="#7209B7" stroke-width="5.69231"/>
<path d="M2110.37 1685.56C2106.71 1674.46 2239.52 1261.42 2016.05 1154.38C1792.59 1047.34 1682.66 1391.7 1456.1 1287.49C1229.53 1183.28 1409.42 1063.45 1258.08 921.609C1106.75 779.769 889.031 923.285 736.082 879.756C583.133 836.228 705.148 663.988 531.888 611.735C358.628 559.482 257.668 648.73 68.8003 561.859C-120.068 474.987 -89.1826 368.667 -170.267 319.71C-251.351 270.754 -393.479 343.741 -393.479 343.741" stroke="#7209B7" stroke-width="5.38462"/>
<path d="M2091.8 1598.24C2086.31 1581.59 2206.6 1197.27 1993.92 1097.53C1781.24 997.783 1672.75 1320.43 1454.21 1219.92C1235.67 1119.4 1408.36 991.729 1255.17 855.281C1101.99 718.832 887.377 871.46 739.277 827.966C591.176 784.473 700.776 613.176 535.622 560.536C370.468 507.895 276.852 598.806 88.281 512.072C-100.29 425.337 -64.7734 297 -160.785 244.264C-256.798 191.528 -410.358 274.486 -410.358 274.486" stroke="#480CA8" stroke-width="5.07692"/>
<path d="M2073.22 1510.94C2065.9 1488.73 2173.66 1133.14 1971.77 1040.69C1769.88 948.241 1662.81 1249.18 1452.31 1152.36C1241.8 1055.54 1407.28 920.026 1252.25 788.969C1097.22 657.913 885.711 819.652 742.459 776.193C599.208 732.735 696.392 562.382 539.344 509.354C382.296 456.326 296.022 548.9 107.749 462.302C-80.5241 375.704 -40.3767 225.351 -151.317 168.836C-262.257 112.32 -427.25 205.248 -427.25 205.248" stroke="#173ED4" stroke-width="4.76923"/>
<path d="M2054.63 1423.65C2045.48 1395.89 2140.72 1069.02 1949.62 983.866C1758.52 898.712 1652.88 1177.95 1450.4 1084.82C1247.93 991.687 1406.2 848.337 1249.32 722.672C1092.44 597.007 884.038 767.858 745.635 724.435C607.232 681.011 692 511.602 543.058 458.186C394.116 404.771 315.186 499.007 127.21 412.546C-60.7655 326.085 -15.987 153.716 -141.855 93.4211C-267.723 33.1262 -444.149 136.024 -444.149 136.024" stroke="#1D4DD7" stroke-width="4.46154"/>
<path d="M2036.03 1336.39C2025.05 1303.08 2107.77 1004.93 1927.46 927.07C1747.15 849.211 1642.93 1106.74 1448.48 1017.3C1254.04 927.866 1405.11 776.675 1246.38 656.402C1087.65 536.129 882.354 716.091 748.8 672.703C615.245 629.315 687.598 460.848 546.762 407.045C405.926 353.242 334.339 449.142 146.661 362.817C-41.0176 276.493 8.39211 82.1079 -132.404 18.0335C-273.2 -46.0408 -461.059 66.8275 -461.059 66.8275" stroke="#235DDA" stroke-width="4.15385"/>
<path d="M2017.42 1249.16C2004.6 1210.29 2074.81 940.866 1905.28 870.302C1735.76 799.737 1632.97 1035.56 1446.55 949.816C1260.14 864.073 1404.01 705.041 1243.43 590.159C1082.85 475.278 880.659 664.352 751.953 620.999C623.247 577.646 683.184 410.122 550.454 355.932C417.724 301.742 353.481 399.303 166.1 313.116C-21.2811 226.928 32.7597 10.5271 -122.965 -57.3266C-278.689 -125.18 -477.98 -2.34185 -477.98 -2.34185" stroke="#296CDE" stroke-width="3.84615"/>
<path d="M1988.26 1184.85C1973.62 1140.43 2031.3 899.725 1872.56 836.454C1713.83 773.184 1612.46 987.299 1434.08 905.25C1255.7 823.201 1392.36 656.328 1229.93 546.838C1067.5 437.348 868.418 635.534 744.561 592.216C620.704 548.898 668.225 382.318 543.601 327.74C418.977 273.162 362.077 372.387 174.994 286.336C-12.0899 200.285 46.582 -38.132 -124.07 -109.765C-294.723 -181.398 -505.447 -48.5897 -505.447 -48.5897" stroke="#2F7CE1" stroke-width="3.53846"/>
<path d="M1957.05 1124.99C1940.58 1075.02 1985.74 863.042 1837.79 807.067C1689.85 751.091 1589.91 943.5 1419.55 865.144C1249.2 786.789 1378.66 612.074 1214.38 507.976C1050.1 403.879 854.127 611.176 735.119 567.893C616.111 524.61 651.216 358.973 534.698 304.008C418.18 249.043 368.623 349.93 181.837 264.016C-4.94903 178.102 58.3542 -82.3316 -127.226 -157.744C-312.806 -233.157 -534.963 -90.378 -534.963 -90.378" stroke="#358BE4" stroke-width="3.23077"/>
<path d="M1925.83 1065.16C1907.53 1009.64 1940.17 826.38 1803.01 777.699C1665.86 729.018 1567.34 899.719 1405.02 825.058C1242.7 750.396 1364.95 567.841 1198.82 469.134C1032.7 370.428 839.825 586.838 725.666 543.589C611.506 500.341 634.196 335.648 525.784 280.295C417.372 224.943 375.158 327.492 188.669 241.715C2.18081 155.938 70.1149 -126.512 -130.393 -205.704C-330.902 -284.895 -564.491 -132.147 -564.491 -132.147" stroke="#3A9BE7" stroke-width="2.92308"/>
<path d="M1894.61 1005.34C1874.47 944.266 1894.59 789.732 1768.22 748.346C1641.86 706.96 1544.77 855.954 1390.48 784.986C1236.18 714.018 1351.24 523.622 1183.26 430.307C1015.28 336.993 825.517 562.514 716.206 519.301C606.895 476.088 617.169 312.338 516.863 256.598C416.557 200.858 381.687 305.07 195.495 219.43C9.30419 133.789 81.8696 -170.677 -133.567 -253.648C-349.003 -336.619 -594.025 -173.9 -594.025 -173.9" stroke="#40AAEA" stroke-width="2.61538"/>
<path d="M1863.38 945.541C1841.41 878.913 1849.01 753.102 1733.43 719.01C1617.85 684.918 1522.19 812.206 1375.93 744.932C1229.67 677.658 1337.51 479.42 1167.69 391.498C997.862 303.575 811.203 538.207 706.741 495.03C602.278 451.852 600.137 289.045 507.937 232.917C415.737 176.79 388.21 282.665 202.316 197.161C16.4223 111.658 93.6186 -214.824 -136.746 -301.575C-367.11 -388.326 -623.565 -215.637 -623.565 -215.637" stroke="#46BAED" stroke-width="2.30769"/>
</g>
</svg>
